<svg width="17" height="17" viewBox="0 0 17 17" fill="none" xmlns="http://www.w3.org/2000/svg">
<path d="M1.00029 6.86053C2.91669 11.0344 6.32669 14.3529 10.5662 16.1519L11.2458 16.4547C12.8006 17.1475 14.6284 16.6212 15.5767 15.2077L16.4648 13.884C16.7536 13.4536 16.6656 12.8739 16.2623 12.5485L13.2504 10.1187C12.8081 9.76184 12.1575 9.84496 11.8191 10.3016L10.8874 11.5589C8.49658 10.3795 6.55553 8.43849 5.37619 6.04768L6.63344 5.11596C7.0901 4.77754 7.17323 4.12702 6.81634 3.68464L4.38647 0.672698C4.06112 0.269416 3.48162 0.181449 3.05125 0.470018L1.71841 1.36372C0.296069 2.31742 -0.227312 4.16027 0.48142 5.71922L0.999509 6.85884L1.00029 6.86053Z" fill="white"/>
</svg>
