<svg width="15" height="15" viewBox="0 0 15 15" fill="none" xmlns="http://www.w3.org/2000/svg">
<path d="M12.0754 14.2086C11.9583 14.2086 11.8419 14.1739 11.7421 14.1062L7.97046 11.5479L5.94759 13.0035C5.78894 13.1175 5.58445 13.1463 5.40023 13.0804C5.21625 13.0144 5.07652 12.862 5.02664 12.673L4.01093 8.82375L0.381678 7.43603C0.153202 7.34863 0.00167632 7.13005 1.38152e-05 6.88543C-0.00164869 6.6408 0.146869 6.42016 0.374236 6.32968L14.174 0.838658C14.2366 0.812058 14.3029 0.796699 14.3697 0.792583C14.3936 0.791158 14.4176 0.791158 14.4414 0.792504C14.5798 0.800737 14.7157 0.857104 14.8218 0.961129C14.8328 0.971896 14.8433 0.9829 14.8532 0.994379C14.941 1.09476 14.9893 1.21716 14.9984 1.34184C15.0006 1.37319 15.0005 1.40494 14.9977 1.43668C14.9958 1.45933 14.9926 1.48189 14.988 1.50429L12.6587 13.726C12.6212 13.9223 12.4876 14.0867 12.303 14.1632C12.2297 14.1936 12.1524 14.2086 12.0754 14.2086ZM8.30162 10.3376L11.6612 12.6164L13.4737 3.10655L6.9276 9.40555L8.28579 10.3269C8.29125 10.3303 8.29647 10.3339 8.30162 10.3376ZM5.50489 9.83083L5.95472 11.5353L6.92388 10.8379L5.65483 9.97706C5.59585 9.93716 5.54534 9.88744 5.50489 9.83083ZM2.22746 6.87031L4.71947 7.82308C4.89799 7.89132 5.03274 8.04142 5.0815 8.2262L5.39754 9.42392C5.41203 9.28577 5.47465 9.15578 5.57638 9.05785L11.8139 3.05589L2.22746 6.87031Z" fill="#30333A"/>
</svg>
