<svg width="85" height="85" viewBox="0 0 85 85" fill="none" xmlns="http://www.w3.org/2000/svg">
<g clip-path="url(#clip0_701_19)">
<path d="M42 71.4948C58.5685 71.4948 72 58.1764 72 41.7474C72 25.3184 58.5685 12 42 12C25.4315 12 12 25.3184 12 41.7474C12 58.1764 25.4315 71.4948 42 71.4948Z" fill="#FFA556"/>
<path d="M84.6411 30.2661H69.6875C68.9365 30.2661 68.3281 30.8744 68.3281 31.6254V32.9848H64.8141L59.7742 27.9449L57.8507 29.8684L62.8906 34.9083V50.0959L58.2484 54.7347H57.4532V31.6258C57.4532 29.3761 55.6248 27.5477 53.3751 27.5477C52.8959 27.5477 52.4439 27.6462 52.0157 27.7992V26.1883C52.0157 23.9385 50.1873 22.1101 47.9376 22.1101C47.4006 22.1101 46.8909 22.2189 46.4218 22.4092C45.9529 20.676 44.3793 19.3913 42.5001 19.3913C40.2503 19.3913 38.4219 21.2197 38.4219 23.4695V25.0804C37.9937 24.9274 37.5418 24.8289 37.0626 24.8289C34.8128 24.8289 32.9844 26.6573 32.9844 28.907V40.0334C32.5562 39.8805 32.1042 39.782 31.6251 39.782C29.3753 39.782 27.5469 41.6103 27.5469 43.8601V54.7351H26.7517L22.1095 50.0928V34.9087L26.7517 30.2665H27.5469V37.0634H30.2657V21.3146L34.9079 16.6724H50.0955L54.7343 21.3146V24.8286H57.4531V20.7505C57.4531 20.3903 57.3104 20.0436 57.0555 19.7887L52.0156 14.7488V11.2348H53.3749C54.126 11.2348 54.7343 10.6265 54.7343 9.87544V0.359375H52.0156V8.51563H32.9843V0.359375H30.2656V9.87544C30.2656 10.6265 30.8739 11.2348 31.6249 11.2348H32.9843V14.7488L27.9444 19.7887C27.6895 20.0436 27.5468 20.3903 27.5468 20.7505V27.5474H26.1874C25.8272 27.5474 25.4805 27.6901 25.2256 27.945L20.1857 32.9849H16.6717V31.6256C16.6717 30.8745 16.0634 30.2662 15.3123 30.2662H0.358765V32.9849H13.9525V52.0162H0.358765V54.7349H15.3123C16.0634 54.7349 16.6717 54.1266 16.6717 53.3756V52.0162H20.1857L25.2256 57.0561C25.4805 57.311 25.8272 57.4537 26.1874 57.4537H27.5468V58.8131C27.5468 59.1733 27.6895 59.52 27.9444 59.7749L32.9843 64.8148V68.3288H31.6249C30.8739 68.3288 30.2656 68.9371 30.2656 69.6882V84.6417H32.9843V71.048H52.0156V84.6417H54.7343V69.6882C54.7343 68.9371 54.126 68.3288 53.3749 68.3288H52.0156V64.8148L57.0555 59.7749C57.3104 59.52 57.4531 59.1733 57.4531 58.8131V57.4537H58.8125C59.1727 57.4537 59.5193 57.311 59.7743 57.0561L64.8142 52.0162H68.3282V53.3756C68.3282 54.1266 68.9365 54.7349 69.6876 54.7349H84.6411V52.0162H71.0474V32.9849H84.6411V30.2661ZM49.2973 11.2348V13.9536H35.7036V11.2348H49.2973ZM16.6723 35.7036H19.3911V49.2973H16.6723V35.7036ZM35.7036 68.3286V65.6098H49.2973V68.3286H35.7036ZM54.7348 58.2488L50.0926 62.891H34.9085L30.2663 58.2488V43.8598C30.2663 43.1122 30.8746 42.5005 31.6256 42.5005C32.3767 42.5005 32.985 43.1122 32.985 43.8598V47.938H35.7038V28.9067C35.7038 28.159 36.3121 27.5473 37.0631 27.5473C37.8142 27.5473 38.4225 28.159 38.4225 28.9067V42.5005H41.1413V23.4692C41.1413 22.7215 41.7496 22.1098 42.5006 22.1098C43.2517 22.1098 43.86 22.7215 43.86 23.4692V42.5005H46.5788V26.1879C46.5788 25.4403 47.1871 24.8286 47.9381 24.8286C48.6892 24.8286 49.2975 25.4403 49.2975 26.1879V42.5005H52.0163V31.6254C52.0163 30.8778 52.6246 30.2661 53.3756 30.2661C54.1267 30.2661 54.735 30.8778 54.735 31.6254L54.7348 58.2488ZM65.6098 49.2973V35.7036H68.3286V49.2973H65.6098Z" fill="#30333A"/>
<path d="M35.7036 73.7661H38.4223V76.4849H35.7036V73.7661Z" fill="#30333A"/>
<path d="M46.5786 73.7661H49.2973V76.4849H46.5786V73.7661Z" fill="#30333A"/>
<path d="M73.7661 46.5786H76.4849V49.2974H73.7661V46.5786Z" fill="#30333A"/>
<path d="M73.7661 35.7036H76.4849V38.4224H73.7661V35.7036Z" fill="#30333A"/>
<path d="M35.7036 3.07812H38.4223V5.79688H35.7036V3.07812Z" fill="#30333A"/>
<path d="M46.5786 3.07812H49.2973V5.79688H46.5786V3.07812Z" fill="#30333A"/>
<path d="M8.51605 35.7036H11.2348V38.4224H8.51605V35.7036Z" fill="#30333A"/>
<path d="M8.51605 46.5786H11.2348V49.2974H8.51605V46.5786Z" fill="#30333A"/>
</g>
<defs>
<clipPath id="clip0_701_19">
<rect width="85" height="85" fill="white"/>
</clipPath>
</defs>
</svg>
