<svg width="81" height="87" viewBox="0 0 81 87" fill="none" xmlns="http://www.w3.org/2000/svg">
<g clip-path="url(#clip0_701_2)">
<path d="M40 59.4948C56.5685 59.4948 70 46.1764 70 29.7474C70 13.3184 56.5685 0 40 0C23.4315 0 10 13.3184 10 29.7474C10 46.1764 23.4315 59.4948 40 59.4948Z" fill="#FFA556"/>
<path fill-rule="evenodd" clip-rule="evenodd" d="M37.0129 51.0852C38.9082 48.6552 40.9617 48.1426 42.3507 48.1426C44.094 48.1426 45.7615 48.9463 46.9101 50.3512C48.1346 51.8447 48.5902 53.7779 48.1852 55.7966C47.1252 61.1597 43.3347 64.4855 39.3287 68.0065C38.2529 68.9494 37.1581 69.9176 36.0823 70.9459C35.0097 69.9176 33.9055 68.9494 32.8297 68.0065C28.824 64.4849 25.0334 61.1595 23.9732 55.7966C23.5713 53.7779 24.0238 51.8447 25.2483 50.3512C26.3968 48.9495 28.0611 48.1426 29.814 48.1426C31.1935 48.1426 33.247 48.6552 35.1422 51.0852C35.3637 51.3731 35.7181 51.5408 36.082 51.5408C36.4459 51.544 36.7908 51.3763 37.0122 51.0852H37.0129ZM50.514 56.2584C49.299 62.4126 45.0212 66.1623 40.8953 69.7911C40.4175 70.2119 39.9334 70.6423 39.4493 71.0757C40.1675 71.7338 40.9047 72.3856 41.6736 73.0627C42.7494 74.0056 43.8536 74.9738 44.9262 76.0053C45.9988 74.977 47.1031 74.0088 48.1726 73.0627C52.1877 69.5411 55.9688 66.2125 57.038 60.8528C57.5 58.5019 56.8134 56.2807 55.1428 54.762C53.8803 53.6071 52.254 53.0692 50.6371 53.2306C50.7574 54.2082 50.7226 55.2271 50.5137 56.2586L50.514 56.2584ZM29.8145 45.773C27.3528 45.773 25.0177 46.8962 23.4136 48.8485C21.7272 50.8987 21.1006 53.5312 21.6449 56.2587C22.8599 62.4128 27.1345 66.1626 31.2604 69.7914C32.5893 70.9557 33.9625 72.1613 35.2377 73.4458C35.4623 73.6673 35.7597 73.7939 36.0793 73.7939C36.3926 73.7939 36.69 73.6673 36.9146 73.4458C37.1677 73.1895 37.4303 72.9396 37.693 72.6896C38.484 73.4237 39.3035 74.142 40.104 74.8444C41.4329 76.0088 42.8061 77.2143 44.0813 78.502C44.3028 78.7235 44.6097 78.8532 44.9229 78.8532C45.2362 78.8532 45.5431 78.7267 45.7646 78.502C47.0397 77.2174 48.4129 76.0119 49.7323 74.8444C53.8678 71.2152 58.1328 67.4626 59.3576 61.315C59.9777 58.1762 59 55.0691 56.7314 53.006C54.8583 51.3005 52.4093 50.557 50.0014 50.9177C49.6882 50.1837 49.2642 49.4876 48.7389 48.8484C47.1347 46.8961 44.7997 45.7729 42.3444 45.7729C40.0442 45.7729 37.8673 46.7537 36.0764 48.5604C34.2824 46.7537 32.1055 45.7729 29.8147 45.7729L29.8145 45.773ZM73.8898 53.4648L77.9873 48.5131L42.6032 19.2737C42.5969 19.2705 42.5874 19.2673 42.5874 19.261C42.0052 18.7674 41.268 18.4953 40.4992 18.4953C39.7524 18.4953 39.031 18.7579 38.4552 19.2325L3.01446 48.5124L7.11824 53.4642L39.7459 26.5033C39.961 26.323 40.23 26.2312 40.4989 26.2312C40.7678 26.2312 41.0368 26.323 41.2583 26.5033L73.8898 53.4648ZM65.2042 84.504V49.3703L40.4992 28.9558L15.7942 49.3703V84.5073L65.2042 84.504ZM80.838 48.2403C80.8095 47.9271 80.6576 47.6392 80.414 47.4367L44.1187 17.4505C43.1125 16.5898 41.828 16.1184 40.499 16.1184C39.1985 16.1184 37.9392 16.574 36.9394 17.3998L0.587448 47.4362C0.346983 47.6356 0.191941 47.9267 0.163461 48.2399C0.134985 48.5532 0.229907 48.8664 0.432406 49.1069L6.0423 55.8875C6.27328 56.1722 6.61817 56.3178 6.95987 56.3178C7.21932 56.3178 7.48827 56.2292 7.71292 56.0457L13.4209 51.3281V85.6899C13.4209 86.3448 13.9493 86.8764 14.6074 86.8764H66.3907C67.0488 86.8764 67.5772 86.3448 67.5772 85.6899L67.5804 51.3281L73.2947 56.0457C73.7946 56.4633 74.5413 56.3937 74.959 55.8875L80.5689 49.1069C80.7682 48.8664 80.8663 48.5532 80.8378 48.2399L80.838 48.2403Z" fill="#30333A"/>
</g>
<defs>
<clipPath id="clip0_701_2">
<rect width="81" height="87" fill="white"/>
</clipPath>
</defs>
</svg>
