<svg width="90" height="96" viewBox="0 0 90 96" fill="none" xmlns="http://www.w3.org/2000/svg">
<g clip-path="url(#clip0_701_8)">
<path d="M60 59.4948C76.5685 59.4948 90 46.1764 90 29.7474C90 13.3184 76.5685 0 60 0C43.4315 0 30 13.3184 30 29.7474C30 46.1764 43.4315 59.4948 60 59.4948Z" fill="#FFA556"/>
<path d="M11.1016 23.7031C10.4196 23.7031 9.86718 24.2555 9.86718 24.9375V32.5289H2.22021C1.53822 32.5289 0.98584 33.0813 0.98584 33.7633V94.0624C0.98584 94.7444 1.53822 95.2968 2.22021 95.2968H49.9038C50.5858 95.2968 51.1382 94.7444 51.1382 94.0624V86.471H58.7821C59.461 86.471 60.0134 85.9186 60.0134 85.2366V24.9375C60.0134 24.2555 59.461 23.7031 58.7821 23.7031H11.1016ZM12.3359 26.1719H57.5476V84.0023H51.1381V33.763C51.1381 33.081 50.5857 32.5286 49.9037 32.5286H12.3353L12.3359 26.1719ZM3.45475 34.9978H48.6664V85.237C48.6664 85.2401 48.6695 85.2432 48.6695 85.2463V92.8254H3.45467L3.45475 34.9978ZM24.208 43.0486H24.205C23.523 43.0486 22.9706 43.601 22.9706 44.283V46.94C17.3326 47.5572 12.9226 52.3404 12.9226 58.1264C12.9226 64.3292 17.9897 69.3808 24.2046 69.3808C29.9999 69.3808 34.7985 64.9864 35.4155 59.3604H38.0817L38.0848 59.3573C38.7637 59.3573 39.3161 58.8049 39.3192 58.1229C39.3192 49.8098 32.5363 43.0482 24.2073 43.0482L24.208 43.0486ZM25.4424 45.5791C31.4508 46.1562 36.2093 50.9024 36.7924 56.8887H25.4424V45.5791ZM22.9737 49.4242V58.1237H22.9706C22.9706 58.8057 23.523 59.358 24.205 59.358H32.9321C32.3334 63.6352 28.6704 66.9093 24.205 66.9093C19.323 66.9093 15.3949 62.9902 15.3949 58.1237C15.3949 53.6769 18.6783 50.0199 22.974 49.4243L22.9737 49.4242ZM13.2314 74.6457L13.2283 74.6488C12.9012 74.6488 12.5864 74.7784 12.355 75.0099C12.1235 75.2413 11.9939 75.5561 11.9939 75.8832C11.9939 76.5652 12.5463 77.1176 13.2283 77.1176H38.8938C39.5758 77.1176 40.1282 76.5652 40.1282 75.8832C40.1282 75.5561 39.9986 75.2413 39.7671 75.0099C39.5357 74.7784 39.2209 74.6488 38.8938 74.6488L13.2314 74.6457ZM13.2314 82.4685L13.2283 82.4716C12.5463 82.4716 11.9939 83.024 11.9939 83.706C11.9939 84.0331 12.1235 84.3448 12.355 84.5763C12.5864 84.8077 12.9012 84.9404 13.2283 84.9404H38.8939C39.221 84.9404 39.5357 84.8077 39.7672 84.5763C39.9986 84.3448 40.1283 84.0331 40.1283 83.706C40.1283 83.024 39.5759 82.4716 38.8939 82.4716L13.2314 82.4685Z" fill="#30333A"/>
</g>
<defs>
<clipPath id="clip0_701_8">
<rect width="90" height="96" fill="white"/>
</clipPath>
</defs>
</svg>
