<svg width="79" height="60" viewBox="0 0 79 60" fill="none" xmlns="http://www.w3.org/2000/svg">
<g clip-path="url(#clip0_701_5)">
<path d="M40 59.6738C56.5685 59.6738 70 46.3554 70 29.9264C70 13.4973 56.5685 0.178955 40 0.178955C23.4315 0.178955 10 13.4973 10 29.9264C10 46.3554 23.4315 59.6738 40 59.6738Z" fill="#FFA556"/>
<path d="M70.2692 32.0765C72.5394 30.17 73.9871 27.3085 73.9871 24.1208C73.9871 18.3945 69.3278 13.7348 63.601 13.7348C57.8743 13.7348 53.215 18.394 53.215 24.1208C53.215 27.3086 54.6594 30.17 56.9295 32.0765C55.0263 32.9941 53.3441 34.2957 51.9711 35.876C50.2108 34.4656 48.2125 33.334 46.0375 32.5795C49.9389 30.3127 52.5693 26.0919 52.5693 21.2695C52.5693 14.0648 46.707 8.20557 39.5019 8.20557C32.3006 8.20557 26.438 14.0645 26.438 21.2695C26.438 26.0919 29.0649 30.3131 32.9663 32.5795C30.7913 33.3339 28.793 34.4656 27.0327 35.876C25.6631 34.2957 23.9775 32.9941 22.0744 32.0765C24.3446 30.17 25.7922 27.3085 25.7922 24.1208C25.7922 18.3945 21.133 13.7348 15.4036 13.7348C9.67384 13.7348 5.01751 18.394 5.01751 24.1208C5.01751 27.3086 6.46188 30.17 8.73197 32.0765C3.57314 34.5676 0.00500488 39.8522 0.00500488 45.9522C0.00500488 47.8349 1.5309 49.3574 3.41027 49.3574H19.6279C19.5498 50.0575 19.5022 50.761 19.5022 51.4781C19.5022 53.3608 21.0281 54.8867 22.9109 54.8867H56.09C57.9728 54.8867 59.4987 53.3608 59.4987 51.4781C59.4987 50.761 59.4443 50.0575 59.373 49.3574H75.5872C77.4699 49.3574 78.9958 47.8349 78.9958 45.9522C78.9958 39.8486 75.4274 34.5674 70.2689 32.0765H70.2692ZM56.6181 24.1174C56.6181 20.2602 59.7447 17.1371 63.5984 17.1371C67.4523 17.1371 70.5788 20.2637 70.5788 24.1174C70.5788 27.9713 67.4522 31.0944 63.5984 31.0944C59.7446 31.0978 56.6181 27.9747 56.6181 24.1174ZM29.8421 21.2696C29.8421 15.9374 34.1649 11.6108 39.5008 11.6108C44.833 11.6108 49.1596 15.9371 49.1596 21.2696C49.1596 26.6051 44.8333 30.9283 39.5008 30.9283C34.1653 30.9283 29.8421 26.6055 29.8421 21.2696ZM8.41834 24.1174C8.41834 20.2602 11.5449 17.1371 15.3987 17.1371C19.2559 17.1371 22.3791 20.2637 22.3791 24.1174C22.3791 27.9713 19.2524 31.0944 15.3987 31.0944C11.5449 31.0978 8.41834 27.9747 8.41834 24.1174ZM3.41245 45.9527C3.41245 39.3325 8.782 33.9632 15.4019 33.9632C19.0791 33.9632 22.3619 35.6216 24.5604 38.2248C22.6063 40.4236 21.1314 43.0574 20.2988 45.9563L3.41245 45.9527ZM56.0883 51.4786H22.9126C22.9126 50.7615 22.9636 50.0547 23.052 49.358C23.2015 48.1787 23.4768 47.0402 23.8608 45.9527C24.4657 44.2433 25.3425 42.6631 26.4402 41.2595C27.1844 40.3079 28.0306 39.4379 28.9618 38.6698C31.8301 36.308 35.5004 34.8907 39.5036 34.8907C43.507 34.8907 47.1772 36.3079 50.0454 38.6698C50.9765 39.4379 51.8194 40.3113 52.567 41.2595C53.6646 42.6631 54.5414 44.2433 55.1463 45.9527C55.5304 47.0402 55.8056 48.1821 55.9552 49.358C56.0401 50.0546 56.0877 50.7615 56.0877 51.4786H56.0883ZM58.7051 45.9527C57.8691 43.0539 56.3976 40.42 54.4435 38.2213C56.6423 35.6181 59.9252 33.9597 63.5985 33.9597C70.2221 33.9597 75.588 39.3292 75.588 45.9491L58.7051 45.9527Z" fill="#30333A"/>
</g>
<defs>
<clipPath id="clip0_701_5">
<rect width="79" height="60" fill="white"/>
</clipPath>
</defs>
</svg>
