<svg width="89" height="88" viewBox="0 0 89 88" fill="none" xmlns="http://www.w3.org/2000/svg">
<g clip-path="url(#clip0_701_11)">
<path d="M44 73.6738C60.5685 73.6738 74 60.3554 74 43.9264C74 27.4973 60.5685 14.179 44 14.179C27.4315 14.179 14 27.4973 14 43.9264C14 60.3554 27.4315 73.6738 44 73.6738Z" fill="#FFA556"/>
<path d="M30.1757 87.569C28.8377 87.569 27.461 87.2326 26.2892 86.5636C25.9295 86.3586 25.6008 86.1266 25.3069 85.8752C24.2396 86.9425 22.6812 87.569 20.8326 87.569C19.2432 87.569 17.6306 87.0779 16.4163 86.2232C14.9159 85.1713 14.0921 83.6515 14.0921 81.9538V81.9306L14.5136 52.6484L3.79391 43.7771C0.32505 41.7275 -0.146785 38.2818 1.1913 35.9035C2.52938 33.533 5.78936 32.0403 9.18862 33.9506C12.6575 35.8957 14.7922 37.7056 16.5053 39.1558C19.2085 41.449 20.6974 42.7058 25.365 42.733H25.4772C29.8587 42.733 31.4403 41.449 34.2905 39.1403C36.0732 37.694 38.2892 35.8958 41.758 33.9506C45.1263 32.0595 48.3632 33.4942 49.6973 35.803C51.0663 38.1619 50.6177 41.6462 47.145 43.7771L35.7135 52.6794L36.2007 81.927C36.2239 84.0114 35.3113 85.7013 33.6213 86.6952C32.6313 87.2791 31.417 87.5653 30.1756 87.5653L30.1757 87.569ZM26.8538 81.6059C26.877 81.718 26.8886 81.834 26.8886 81.9539C26.8886 82.7544 27.4919 83.2726 28.0023 83.5588C29.178 84.2317 30.8718 84.3013 31.8656 83.7173C32.4728 83.3616 32.7512 82.8047 32.7396 81.9771L32.2407 51.8752C32.233 51.3338 32.4766 50.8194 32.9059 50.483L45.0987 40.9891C45.1567 40.9466 45.2147 40.9079 45.2766 40.8693C47.1136 39.771 47.2179 38.4291 46.7036 37.5357C46.1815 36.6347 44.975 36.1087 43.4474 36.9634C40.2338 38.7693 38.2306 40.3897 36.4632 41.8245C33.3153 44.3768 31.0531 46.2138 25.3455 46.1866C19.4171 46.1596 17.1432 44.2337 14.2694 41.7935C12.5834 40.3665 10.6768 38.75 7.49406 36.9634C5.95877 36.101 4.73285 36.6617 4.2031 37.6015C3.6965 38.4948 3.81252 39.8174 5.63395 40.8499C5.7229 40.9001 5.8041 40.9581 5.88145 41.0239L17.3516 50.5178C17.7538 50.8504 17.9858 51.3492 17.9781 51.8713L17.5449 81.9653C17.5527 83.2493 19.2466 84.1117 20.832 84.1117C21.7872 84.1117 23.3959 83.8294 23.3959 81.9538V65.9514C23.3959 64.9962 24.1694 64.2228 25.1246 64.2228C26.0798 64.2228 26.8532 64.9962 26.8532 65.9514L26.8538 81.6059Z" fill="#30333A"/>
<path d="M25.4584 40.6795C19.9825 40.6795 15.5277 36.2245 15.5277 30.7449C15.5277 25.269 19.9827 20.8142 25.4584 20.8142C30.9341 20.8142 35.393 25.2692 35.393 30.7449C35.393 36.2247 30.9342 40.6795 25.4584 40.6795ZM25.4584 24.2713C21.889 24.2713 18.9808 27.1756 18.9808 30.745C18.9808 34.3183 21.889 37.2226 25.4584 37.2226C29.0278 37.2226 31.936 34.3183 31.936 30.745C31.936 27.1756 29.0278 24.2713 25.4584 24.2713Z" fill="#30333A"/>
<path d="M44.6011 31.2281C43.6459 31.2281 42.8724 30.4546 42.8724 29.4994V2.22791C42.8724 1.27272 43.6459 0.499268 44.6011 0.499268C45.5563 0.499268 46.3259 1.27271 46.3259 2.22791V29.4994C46.3259 30.4546 45.5563 31.2281 44.6011 31.2281Z" fill="#30333A"/>
<path d="M44.6011 87.9165C43.6459 87.9165 42.8724 87.1431 42.8724 86.1879V50.6637C42.8724 49.7085 43.6459 48.9351 44.6011 48.9351C45.5563 48.9351 46.3259 49.7085 46.3259 50.6637V86.1879C46.3259 87.1431 45.5563 87.9165 44.6011 87.9165Z" fill="#30333A"/>
<path d="M67.2661 21.8458H45.2772C44.322 21.8458 43.5486 21.0723 43.5486 20.1171C43.5486 19.1619 44.322 18.3885 45.2772 18.3885H65.5376V8.02417H45.2772C44.322 8.02417 43.5486 7.25074 43.5486 6.29553C43.5486 5.34033 44.322 4.56689 45.2772 4.56689H67.2661C68.2213 4.56689 68.9948 5.34033 68.9948 6.29553V20.1169C68.9948 21.0721 68.2213 21.8456 67.2661 21.8456V21.8458Z" fill="#30333A"/>
<path d="M86.7681 27.8631H67.2502C66.2951 27.8631 65.5216 27.0897 65.5216 26.1345V20.326C65.5216 19.3708 66.295 18.5973 67.2502 18.5973C68.2054 18.5973 68.9789 19.3708 68.9789 20.326V24.4059H82.4756L78.1173 20.2215C77.4289 19.5641 77.4057 18.4736 78.0631 17.7814L82.7386 12.8662H72.4872C71.532 12.8662 70.7585 12.0928 70.7585 11.1376C70.7585 10.1824 71.532 9.40894 72.4872 9.40894H86.7729C87.4651 9.40894 88.0877 9.82272 88.3623 10.4569C88.633 11.0912 88.5015 11.8298 88.0259 12.3286L81.7495 18.9183L87.9679 24.8814C88.4783 25.3687 88.6369 26.1189 88.3739 26.7725C88.1109 27.4261 87.4767 27.8554 86.7729 27.8554L86.7681 27.8631Z" fill="#30333A"/>
</g>
<defs>
<clipPath id="clip0_701_11">
<rect width="89" height="88" fill="white"/>
</clipPath>
</defs>
</svg>
