<svg width="81" height="84" viewBox="0 0 81 84" fill="none" xmlns="http://www.w3.org/2000/svg">
<path d="M51 59.4948C67.5685 59.4948 81 46.1764 81 29.7474C81 13.3184 67.5685 0 51 0C34.4315 0 21 13.3184 21 29.7474C21 46.1764 34.4315 59.4948 51 59.4948Z" fill="#FFA556"/>
<path fill-rule="evenodd" clip-rule="evenodd" d="M64.0635 82.4385H10.9365C6.62112 82.4385 3.12305 78.9404 3.12305 74.625L3.12598 12.126C3.12598 11.2647 3.82324 10.5645 4.68748 10.5645H57.8115C58.4589 10.5645 59.0156 10.957 59.2529 11.5195C59.332 11.7041 59.376 11.9092 59.376 12.1259V34.0019H70.3125C71.1767 34.0019 71.8739 34.7021 71.8739 35.5634V74.6249C71.8739 78.9404 68.3788 82.4384 64.0635 82.4384V82.4385ZM56.25 74.625V13.6875H6.24905V74.625C6.24905 77.2148 8.34965 79.3125 10.9365 79.3125H57.8468C56.8595 78.0029 56.2501 76.3916 56.2501 74.625H56.25ZM68.7511 37.125H59.376V74.625C59.376 77.2148 61.4737 79.3125 64.0635 79.3125C66.6534 79.3125 68.7511 77.2148 68.7511 74.625V37.125ZM10.9365 71.499C10.9365 70.6377 11.6338 69.9375 12.498 69.9375H26.5606C27.4248 69.9375 28.122 70.6376 28.122 71.499C28.122 72.3632 27.4248 73.0605 26.5606 73.0605L12.501 73.0634C11.6368 73.0634 10.9366 72.3632 10.9366 71.499H10.9365ZM18.2286 46.0545C17.6338 46.6492 16.6671 46.6492 16.0694 46.0545C15.4747 45.4597 15.4747 44.493 16.0694 43.8953L25.2951 34.6695C25.345 34.5963 25.3772 34.5113 25.4446 34.4469C25.7522 34.1393 26.1594 33.9957 26.5608 34.0074C26.9651 33.9986 27.3694 34.1393 27.677 34.4469C27.7415 34.5113 27.7737 34.5963 27.8264 34.6695L34.3743 41.2174L37.7962 37.7955C37.846 37.7223 37.8782 37.6373 37.9456 37.5729C38.2532 37.2653 38.6604 37.1217 39.0618 37.1334C39.4661 37.1217 39.8704 37.2653 40.178 37.5729C40.2425 37.6373 40.2747 37.7223 40.3275 37.7955L46.43 43.8981C47.0247 44.4928 47.0247 45.4596 46.43 46.0572C45.8323 46.652 44.8685 46.652 44.2708 46.0572L39.0618 40.8453L36.5335 43.3737L37.055 43.8951C37.6497 44.4899 37.6497 45.4566 37.055 46.0543C36.4603 46.649 35.4935 46.649 34.8958 46.0543L26.5641 37.7196L18.2286 46.0545ZM35.9383 54.3135H50.0008C50.8651 54.3135 51.5623 55.0136 51.5623 55.875C51.5623 56.7392 50.8651 57.4365 50.0008 57.4365H35.9383C35.0741 57.4365 34.3768 56.7392 34.3768 55.875C34.3739 55.0137 35.0741 54.3135 35.9383 54.3135ZM35.9383 62.124H50.0008C50.8651 62.124 51.5623 62.8241 51.5623 63.6855C51.5623 64.5497 50.8651 65.247 50.0008 65.247H35.9383C35.0741 65.247 34.3768 64.5497 34.3768 63.6855C34.3739 62.8242 35.0741 62.124 35.9383 62.124ZM35.9383 69.9375H50.0008C50.8651 69.9375 51.5623 70.6376 51.5623 71.499C51.5623 72.3632 50.8651 73.0605 50.0008 73.0605H35.9383C35.0741 73.0605 34.3768 72.3632 34.3768 71.499C34.3739 70.6377 35.0741 69.9375 35.9383 69.9375ZM37.4998 33.2197C37.4998 34.5147 36.451 35.5635 35.1561 35.5635C33.8611 35.5635 32.8123 34.5147 32.8123 33.2197C32.8123 31.9248 33.8611 30.876 35.1561 30.876C36.451 30.876 37.4998 31.9248 37.4998 33.2197ZM42.1873 24.624H20.3113C19.4471 24.624 18.7498 23.9238 18.7498 23.0625C18.7498 22.2011 19.4471 21.501 20.3113 21.501H42.1873C43.0515 21.501 43.7488 22.2011 43.7488 23.0625C43.7488 23.9238 43.0516 24.624 42.1873 24.624ZM12.5008 62.124H26.5633C27.4276 62.124 28.1248 62.8241 28.1248 63.6855C28.1248 64.5497 27.4276 65.247 26.5633 65.247L12.5008 65.2499C11.6366 65.2499 10.9393 64.5526 10.9393 63.6884C10.9364 62.8242 11.6366 62.124 12.5008 62.124ZM28.1248 55.875C28.1248 56.7392 27.4276 57.4365 26.5633 57.4365H12.5008C11.6366 57.4365 10.9393 56.7392 10.9393 55.875C10.9393 55.0137 11.6366 54.3135 12.5008 54.3135H26.5633C27.4276 54.3135 28.1248 55.0136 28.1248 55.875Z" fill="#30333A"/>
</svg>
