<svg width="95" height="75" viewBox="0 0 95 75" fill="none" xmlns="http://www.w3.org/2000/svg">
<g clip-path="url(#clip0_701_41)">
<path d="M65 74.4948C81.5685 74.4948 95 61.1764 95 44.7474C95 28.3184 81.5685 15 65 15C48.4315 15 35 28.3184 35 44.7474C35 61.1764 48.4315 74.4948 65 74.4948Z" fill="#FFA556"/>
<path d="M13.2188 13.919H75.703C76.6166 13.919 77.3559 13.1796 77.3559 12.2661C77.3559 11.3525 76.6166 10.6132 75.703 10.6132L13.2188 10.6096C12.3052 10.6096 11.5659 11.349 11.5659 12.2625C11.5659 13.1796 12.3052 13.919 13.2188 13.919Z" fill="#30333A"/>
<path d="M13.2188 24.4012H75.703C76.6166 24.4012 77.3559 23.6618 77.3559 22.7483C77.3559 21.8347 76.6166 21.0954 75.703 21.0954L13.2188 21.0918C12.3052 21.0918 11.5659 21.8312 11.5659 22.7447C11.5659 23.6618 12.3052 24.4012 13.2188 24.4012Z" fill="#30333A"/>
<path d="M13.2188 34.8846H44.4609C45.3745 34.8846 46.1138 34.1452 46.1138 33.2317C46.1138 32.3181 45.3745 31.5788 44.4609 31.5788L13.2188 31.5752C12.3052 31.5752 11.5659 32.3146 11.5659 33.2281C11.5659 34.1452 12.3052 34.8846 13.2188 34.8846Z" fill="#30333A"/>
<path d="M13.2188 45.3668H44.4609C45.3745 45.3668 46.1138 44.6274 46.1138 43.7139C46.1138 42.8003 45.3745 42.0609 44.4609 42.0609L13.2188 42.0574C12.3052 42.0574 11.5659 42.7967 11.5659 43.7103C11.5659 44.6238 12.3052 45.3668 13.2188 45.3668Z" fill="#30333A"/>
<path d="M86.815 0.0415039H2.10312C1.18957 0.0415039 0.450195 0.780879 0.450195 1.69443V55.3135C0.450195 56.227 1.18957 56.9664 2.10312 56.9664H55.1033V63.8625C55.1033 64.4916 55.4588 65.0639 56.0204 65.3447C56.5821 65.6256 57.2539 65.5616 57.7551 65.1812L63.9687 60.4784L70.1822 65.1812C70.4737 65.4016 70.8256 65.5154 71.1811 65.5154C71.4335 65.5154 71.6859 65.4585 71.917 65.3412C72.4786 65.0604 72.8341 64.4881 72.8341 63.8589V56.9628H86.818C87.7316 56.9628 88.4709 56.2234 88.4709 55.3099V1.69451C88.4709 0.780961 87.728 0.0415872 86.8145 0.0415872L86.815 0.0415039ZM64.4454 49.1633C64.4312 49.1633 64.417 49.1669 64.4028 49.1669C64.2606 49.174 64.1148 49.1775 63.9691 49.1775C63.8233 49.1775 63.6776 49.174 63.5354 49.1669C63.5212 49.1669 63.507 49.1633 63.4928 49.1633C59.0281 48.9145 55.4734 45.2069 55.4734 40.6818C55.4734 35.9968 59.284 32.1862 63.9691 32.1862C68.6541 32.1862 72.4647 35.9968 72.4647 40.6818C72.4612 45.207 68.9064 48.9145 64.4453 49.1633H64.4454ZM69.525 60.5347L64.9679 57.083C64.6729 56.8591 64.321 56.7489 63.969 56.7489C63.6171 56.7489 63.2652 56.8591 62.9701 57.083L58.413 60.5347V51.1043C59.7496 51.8188 61.2141 52.2667 62.7426 52.4231C62.7533 52.4231 62.7639 52.4267 62.7782 52.4267C62.9594 52.4444 63.1443 52.4587 63.3291 52.4693C63.3576 52.4693 63.3896 52.4729 63.418 52.4729C63.6029 52.48 63.7877 52.4871 63.9725 52.4871C64.1574 52.4871 64.3422 52.48 64.5271 52.4729C64.5555 52.4729 64.5875 52.4693 64.6159 52.4693C64.8008 52.4587 64.9821 52.4444 65.1669 52.4267C65.1776 52.4267 65.1882 52.4231 65.1989 52.4231C66.7274 52.2667 68.1955 51.8188 69.5321 51.1043V55.3131L69.525 60.5347ZM85.1625 53.6599H72.8347V48.463C74.6618 46.3834 75.7709 43.6606 75.7709 40.6853C75.7709 34.1767 70.4744 28.8835 63.9691 28.8835C57.4605 28.8835 52.1637 34.18 52.1637 40.6853C52.1637 43.6641 53.2763 46.387 55.0999 48.463V53.6599L3.7595 53.6563V3.35062H85.1617L85.1625 53.6599Z" fill="#30333A"/>
</g>
<defs>
<clipPath id="clip0_701_41">
<rect width="95" height="75" fill="white"/>
</clipPath>
</defs>
</svg>
