<svg width="79" height="79" viewBox="0 0 79 79" fill="none" xmlns="http://www.w3.org/2000/svg">
<g clip-path="url(#clip0_701_33)">
<path d="M30 78.4948C46.5685 78.4948 60 65.1764 60 48.7474C60 32.3184 46.5685 19 30 19C13.4315 19 0 32.3184 0 48.7474C0 65.1764 13.4315 78.4948 30 78.4948Z" fill="#FFA556"/>
<path d="M50.7746 78.3466C52.8396 78.6595 54.9395 78.0581 56.5318 76.7022C58.1206 75.3463 59.0453 73.3647 59.0628 71.2752V61.3562C59.0697 58.561 57.0499 56.1761 54.2929 55.7207L42.8448 53.8086C39.8063 53.1168 37.404 55.7938 35.325 57.5355L35.3216 57.539C33.8649 58.7766 31.7755 58.9226 30.1589 57.904C26.5884 55.5643 23.5534 52.491 21.2658 48.8856C20.2472 47.349 20.2959 45.336 21.3909 43.8481L24.5512 39.5823C25.4933 38.3064 25.8653 36.6967 25.5767 35.1358L23.6889 24.9844C23.1848 22.2796 20.8242 20.3189 18.0708 20.3189H7.89454C5.89551 20.3154 3.98691 21.1532 2.63099 22.6238C1.27517 24.0943 0.600727 26.0691 0.767513 28.0611C1.84868 40.959 8.88529 71.6783 50.7748 78.3462L50.7746 78.3466ZM4.67166 24.5123C5.49909 23.6084 6.67069 23.0938 7.89444 23.1009H18.0707C19.4822 23.1009 20.6955 24.1056 20.9528 25.4927L22.844 35.6441C22.9901 36.4471 22.8023 37.2711 22.3156 37.9247L19.1554 42.1939C17.3684 44.6206 17.285 47.9094 18.9468 50.423C23.9669 57.4387 30.7286 64.7288 37.1188 59.6567L40.0044 57.2092H40.0078C40.6614 56.6495 41.534 56.4096 42.3824 56.5556L53.8304 58.4677L53.8339 58.4642C55.2488 58.6971 56.2849 59.9243 56.2814 61.3567V71.2784V71.275C56.271 72.5543 55.7043 73.7642 54.7309 74.5951C53.7609 75.4225 52.4745 75.7911 51.2126 75.5998C11.2632 69.2412 4.56414 40.0728 3.53886 27.8282C3.43109 26.6114 3.84131 25.4085 4.67218 24.5115L4.67166 24.5123Z" fill="#30333A"/>
<path d="M21.328 18.4248C21.6966 18.4248 22.0512 18.2753 22.3119 18.0146C22.5727 17.7538 22.7187 17.4027 22.7187 17.0341V7.09105C22.7187 6.84074 22.743 6.59391 22.7952 6.35054L42.9768 22.0404L28.3995 32.2932C27.7737 32.7347 27.6208 33.6039 28.0623 34.2296C28.5038 34.8589 29.373 35.0118 30.0022 34.5668L45.3307 23.7863C47.6321 25.2429 50.5664 25.2429 52.8679 23.7863L72.3785 37.5154C72.1664 37.5571 71.9509 37.578 71.7319 37.5815H29.2584C28.497 37.5919 27.8886 38.2107 27.8886 38.9721C27.8886 39.73 28.497 40.3488 29.2584 40.3627H71.7354H71.7319C75.3372 40.3592 78.2574 37.4389 78.2609 33.8338V7.09194C78.24 3.49367 75.3301 0.583814 71.7319 0.562988H26.4674C22.8692 0.583848 19.9593 3.49376 19.9385 7.09194V17.035C19.9385 17.4035 20.0845 17.7547 20.3452 18.0154C20.606 18.2762 20.9606 18.4257 21.3291 18.4257L21.328 18.4248ZM75.4027 6.35105C75.4548 6.59441 75.4791 6.84125 75.4791 7.09156V33.8334C75.4791 34.5565 75.2671 35.2623 74.8708 35.8672L55.2178 22.0411L75.4027 6.35105ZM71.7314 3.34383C72.4963 3.34383 73.2437 3.58023 73.866 4.01828L52.0405 20.9906L51.8111 21.1644C50.2118 22.4125 47.9695 22.409 46.3737 21.154L24.3284 4.01792C24.9542 3.57987 25.7017 3.34347 26.4664 3.34347L71.7314 3.34383Z" fill="#30333A"/>
</g>
<defs>
<clipPath id="clip0_701_33">
<rect width="79" height="79" fill="white"/>
</clipPath>
</defs>
</svg>
