<svg width="91" height="88" viewBox="0 0 91 88" fill="none" xmlns="http://www.w3.org/2000/svg">
<g clip-path="url(#clip0_701_37)">
<path d="M52 59.4948C68.5685 59.4948 82 46.1764 82 29.7474C82 13.3184 68.5685 0 52 0C35.4315 0 22 13.3184 22 29.7474C22 46.1764 35.4315 59.4948 52 59.4948Z" fill="#FFA556"/>
<path d="M41.2783 63.2781L30.3501 55.4388C29.5926 54.8233 28.5431 54.705 27.6633 55.135C26.7835 55.6045 26.2588 56.5356 26.3101 57.5298V73.6898C26.2391 74.688 26.7559 75.6349 27.6318 76.1122C27.9632 76.2819 28.3301 76.3687 28.7049 76.3647C29.3006 76.3489 29.8806 76.1398 30.3501 75.769L41.2783 67.9336C42.0555 67.4128 42.525 66.5409 42.525 65.6058C42.525 64.6708 42.0555 63.7949 41.2783 63.2781ZM30.1566 71.1527V60.0427L37.9367 65.6095L30.1566 71.1527Z" fill="#30333A"/>
<path d="M89.021 36.4817L75.1213 31.5619L75.6382 26.2199C75.6974 25.1784 74.9122 24.2788 73.8707 24.1999L36.9148 21.3119C35.8613 21.2527 34.9579 22.0576 34.8948 23.1109L33.581 44.0563H6.88666C3.47397 44.0602 0.712224 46.8259 0.704346 50.2386V81.5486C0.712236 84.9574 3.47397 87.723 6.88666 87.727H60.9015C64.3141 87.723 67.0759 84.9574 67.0838 81.5486V80.0336L72.8913 82.0536C73.8894 82.4008 74.9823 81.88 75.3335 80.8818L90.1795 38.9153C90.5266 37.9211 90.0098 36.8361 89.0196 36.481L89.021 36.4817ZM38.521 25.2929L71.6298 27.8376L71.1642 32.5956V32.6548L67.7199 68.2371H67.0926V50.247C67.0887 46.8382 64.323 44.0725 60.9142 44.0686H37.4196L38.521 25.2929ZM63.2538 81.5297C63.2499 82.8198 62.2043 83.8653 60.9143 83.8693H6.88734C5.59727 83.8653 4.55172 82.8198 4.54384 81.5297V50.2197C4.55173 48.9257 5.59727 47.8802 6.88734 47.8762H60.9022C62.1922 47.8802 63.2417 48.9257 63.2457 50.2197L63.2538 81.5297ZM72.3438 77.8014L67.0728 75.9313V72.0728H69.448C70.4343 72.0728 71.2628 71.3232 71.3575 70.3368L74.7899 35.5039L85.8999 39.4611L72.3438 77.8014Z" fill="#30333A"/>
</g>
<defs>
<clipPath id="clip0_701_37">
<rect width="91" height="88" fill="white"/>
</clipPath>
</defs>
</svg>
