<svg width="98" height="78" viewBox="0 0 98 78" fill="none" xmlns="http://www.w3.org/2000/svg">
<ellipse cx="68" cy="29.9263" rx="30" ry="29.7474" fill="#FFA556"/>
<path d="M17.6846 77.8325H37.5614V74.9919H19.9177C24.2891 65.6533 28.6289 56.6301 31.8407 50.0217L33.0835 52.8465V52.8505C33.2847 53.3121 33.7187 53.6277 34.2198 53.6869C34.7208 53.7421 35.2179 53.5291 35.5178 53.1266L37.4944 50.4793L39.2185 53.0635C39.4986 53.4857 39.9839 53.7263 40.4888 53.6948C40.9938 53.6632 41.4436 53.3673 41.6725 52.9136L43.2072 49.8441L45.9531 55.4227L48.5018 54.1681L41.3726 39.6928V39.6888C40.6545 38.2409 39.175 37.3296 37.5615 37.3296C35.9479 37.3296 34.4723 38.241 33.7503 39.6888C31.4305 44.3245 23.8476 59.8575 16.3985 75.8125C16.1934 76.2504 16.2289 76.7673 16.4893 77.1737C16.7497 77.584 17.1994 77.8326 17.6847 77.8326L17.6846 77.8325ZM36.2908 40.9594C36.7879 39.9692 38.3423 39.9771 38.8276 40.9515L41.6287 46.6446L40.2242 49.4577L38.7407 47.2325C38.4882 46.8459 38.0621 46.6092 37.6005 46.5973C37.1389 46.5855 36.701 46.7986 36.4248 47.1694L34.7007 49.4775L33.4697 46.6803C34.7047 44.1553 35.6831 42.1708 36.2907 40.9595L36.2908 40.9594Z" fill="#30333A"/>
<path d="M41.8223 77.8325H92.9304C93.4117 77.8325 93.8615 77.5879 94.1219 77.1815C94.3862 76.7791 94.4217 76.2662 94.2244 75.8283L74.3476 31.8186C74.1188 31.3097 73.6138 30.9822 73.0536 30.9822H71.6334V15.3666H78.7349V19.6276V19.6236C78.7349 20.0024 78.8848 20.3614 79.1491 20.6297C79.4174 20.894 79.7764 21.0439 80.1552 21.0439H92.9337H92.9298C93.4663 21.0439 93.9595 20.7402 94.2001 20.2588C94.4408 19.7775 94.3895 19.2015 94.066 18.7714L90.4442 13.9463L94.066 9.11732C94.3895 8.68728 94.4408 8.11127 94.2001 7.63383C93.9595 7.15251 93.4663 6.84872 92.9298 6.84872H84.4118V2.58773C84.4118 2.20898 84.2619 1.84996 83.9976 1.58168C83.7293 1.31734 83.3703 1.16742 82.9915 1.16742H64.5358C64.161 1.16742 63.798 1.31734 63.5337 1.58168C63.2654 1.84996 63.1155 2.20898 63.1155 2.58773V30.9819H61.6952H61.6992C61.1389 30.9819 60.6339 31.3093 60.4051 31.8183L40.5283 75.828C40.3311 76.2659 40.3666 76.7788 40.627 77.1812C40.8913 77.5876 41.3371 77.8322 41.8224 77.8322L41.8223 77.8325ZM84.412 13.946V9.68499H90.0933L87.5368 13.0937C87.158 13.5987 87.158 14.2931 87.5368 14.7981L90.0933 18.2069L81.5714 18.2029V15.3662H82.9917C83.3704 15.3662 83.7294 15.2163 83.9977 14.948C84.262 14.6837 84.412 14.3207 84.412 13.9459L84.412 13.946ZM71.6335 4.00778H81.5717V12.5257H71.6335V4.00778ZM65.9562 4.00778H68.7968V30.9818H65.9562V4.00778ZM62.6145 33.823H72.1385L74.5254 39.1058L72.9118 43.1379L71.4874 40.2855C71.2349 39.7844 70.7142 39.4806 70.1579 39.5003C69.5976 39.524 69.1045 39.8752 68.8954 40.392L67.3725 44.1952L65.8496 40.392H65.8536C65.6484 39.8752 65.1553 39.524 64.595 39.5003C64.0387 39.4767 63.5179 39.7844 63.2654 40.2855L61.8412 43.1379L60.2275 39.1058L62.6145 33.823ZM58.606 42.696L60.3775 47.1266C60.5905 47.6434 61.0797 47.9867 61.6399 48.0103C62.1962 48.034 62.7131 47.7302 62.9656 47.2331L64.3899 44.3807L66.0548 48.543L66.0587 48.5469C66.2757 49.0835 66.7965 49.4346 67.3765 49.4346C67.9564 49.4346 68.4771 49.0835 68.6942 48.5469L70.3591 44.3846L71.7834 47.2371V47.2331C72.0359 47.7342 72.5567 48.038 73.1129 48.0143C73.6732 47.9946 74.1664 47.6434 74.3755 47.1266L76.1469 42.696L90.7323 74.9928H44.0198L58.606 42.696Z" fill="#30333A"/>
<path d="M2.06947 77.8325H13.4279V74.9919H4.29844L10.2637 62.2134H11.25L13.6685 65.8391C14.1971 66.6281 15.503 66.6281 16.0317 65.8391L18.4501 62.2134H20.332L20.3281 62.2173C20.8134 62.2173 21.2671 61.9688 21.5275 61.5585C21.7879 61.1482 21.8234 60.6353 21.6182 60.1934C20.0125 56.757 20.2373 57.2422 18.6789 54.0427C17.1244 50.8509 12.5715 50.8509 11.0132 54.0427C9.06422 58.0353 10.3662 55.2776 0.782926 75.8132C0.577775 76.2511 0.609327 76.768 0.869722 77.1744C1.13406 77.5847 1.58382 77.8332 2.0691 77.8332L2.06947 77.8325ZM13.5703 55.2853C14.0556 54.2871 15.6416 54.2832 16.1269 55.2853C17.3578 57.8024 17.4761 58.0392 18.1034 59.3766H17.6852C17.2118 59.3766 16.7699 59.6133 16.5055 60.0079L14.8485 62.4934L13.1915 60.0079H13.1876C12.9232 59.6133 12.4814 59.3766 12.0079 59.3766H11.5936C12.3472 57.7709 12.4143 57.6486 13.5702 55.2853H13.5703Z" fill="#30333A"/>
<path d="M65.9556 52.2785H68.7962V72.1553H65.9556V52.2785Z" fill="#30333A"/>
<path d="M50.4702 70.1393L58.9881 51.6836L61.5684 52.8751L53.0505 71.3308L50.4702 70.1393Z" fill="#30333A"/>
<path d="M73.1841 52.8704L75.7643 51.6789L84.2823 70.1346L81.702 71.3261L73.1841 52.8704Z" fill="#30333A"/>
</svg>
