<svg width="94" height="97" viewBox="0 0 94 97" fill="none" xmlns="http://www.w3.org/2000/svg">
<g clip-path="url(#clip0_541_8)">
<path d="M30 59.4948C46.5685 59.4948 60 46.1764 60 29.7474C60 13.3184 46.5685 0 30 0C13.4315 0 0 13.3184 0 29.7474C0 46.1764 13.4315 59.4948 30 59.4948Z" fill="#FFA556"/>
<path d="M91.4312 60.4908L87.9714 57.8711C88.2171 56.5762 88.34 55.3343 88.34 54.1025C88.34 52.884 88.2204 51.6488 87.9714 50.3505L91.4113 47.754C93.5595 46.1735 94.1671 43.2417 92.8258 40.9341L91.9758 39.4665C90.6543 37.1522 87.8188 36.2027 85.3916 37.2552L81.4039 38.9485C79.4814 37.3017 77.2601 36.0267 74.8728 35.1932L74.3549 30.8934C74.0361 28.2704 71.7982 26.2914 69.1486 26.2914H67.442C64.8056 26.2914 62.5677 28.267 62.2357 30.9001L61.7244 35.1966C59.3338 36.03 57.1092 37.3083 55.1933 38.9485L51.2189 37.2585C48.7785 36.1993 45.943 37.1489 44.6314 39.4532L43.7748 40.9307C42.4334 43.2417 43.0377 46.1735 45.1693 47.7407L46.7033 48.8962C46.089 50.0085 45.7404 51.2835 45.7404 52.6381C45.7404 55.0786 46.8726 57.2567 48.6357 58.6811C47.5732 58.8737 46.5804 59.2655 45.6939 59.8166C44.6347 58.4022 43.1074 57.3961 41.3709 56.9811C42.7787 55.6929 43.6652 53.8401 43.6652 51.7848C43.6652 47.9001 40.5042 44.7391 36.6228 44.7391C32.738 44.7391 29.5771 47.9001 29.5771 51.7848C29.5771 53.8401 30.4636 55.6929 31.8714 56.9844C28.5179 57.7913 26.021 60.8161 26.021 64.412V72.1815C26.021 73.9346 27.4421 75.3591 29.1919 75.3591L30.0884 86.5621C30.2611 88.8033 32.1537 90.5564 34.4015 90.5564H38.8375C41.082 90.5564 42.9779 88.8033 43.1505 86.5621L43.7415 78.9253C44.1466 79.098 44.5916 79.1943 45.0597 79.1943H45.3154L46.3181 92.1636C46.5041 94.5808 48.5527 96.4766 50.9766 96.4766H56.0234C58.4473 96.4766 60.4959 94.5807 60.6819 92.1636L61.6846 79.1943H61.9403C62.4084 79.1943 62.8533 79.098 63.2585 78.9253L63.8495 86.5621C64.0221 88.8033 65.918 90.5564 68.1625 90.5564H72.5985C74.843 90.5564 76.7389 88.8033 76.9116 86.5621L77.7782 75.3557H77.808C79.5579 75.3557 80.979 73.9279 80.979 72.1781V69.6248C81.1217 69.5086 81.2612 69.3924 81.4006 69.2728L85.3784 70.9695C86.0491 71.2584 86.7464 71.3978 87.437 71.3978C89.2565 71.3978 91.0096 70.4383 91.9659 68.7681L92.8258 67.2939C94.1672 64.9863 93.5596 62.0544 91.4313 60.4906L91.4312 60.4908ZM36.6164 48.312C38.5322 48.312 40.0894 49.8692 40.0894 51.785C40.0894 53.7008 38.5289 55.258 36.6164 55.258C34.7005 55.258 33.1434 53.7008 33.1434 51.785C33.1434 49.8692 34.7005 48.312 36.6164 48.312ZM41.6898 66.9984V71.9224C41.0822 72.1714 40.6373 72.7459 40.5842 73.4364L39.588 86.2893C39.5582 86.6811 39.2261 86.9865 38.8343 86.9865L34.3984 86.9899C34.0066 86.9899 33.6745 86.6844 33.6446 86.2926L32.6485 73.4398C32.5755 72.51 31.8019 71.7929 30.8688 71.7929H29.5839V64.4151C29.5839 62.1706 31.41 60.3444 33.6546 60.3444H39.5714C41.0423 60.3444 42.3671 61.1247 43.0842 62.3499C42.2043 63.6813 41.6897 65.2817 41.6897 66.9984H41.6898ZM61.7379 75.6276H60.0313C59.0983 75.6276 58.3247 76.3448 58.2516 77.2744L57.1227 91.8936C57.0795 92.4647 56.5948 92.9129 56.0237 92.9129H50.9768C50.4057 92.9129 49.9209 92.4647 49.8777 91.8936L48.7488 77.2744C48.6758 76.3447 47.9022 75.6276 46.9691 75.6276H45.2625L45.2592 66.9984C45.2592 64.3089 47.4439 62.1208 50.1334 62.1208H56.867C59.5532 62.1208 61.7413 64.3089 61.7413 66.9984L61.7379 75.6276ZM49.3033 52.641C49.3033 50.3267 51.1859 48.4475 53.4969 48.4475C55.8078 48.4475 57.6904 50.33 57.6904 52.641C57.6904 54.952 55.8078 56.8346 53.4969 56.8346C51.1859 56.8346 49.3033 54.952 49.3033 52.641ZM77.4094 71.789H76.1245C75.1914 71.789 74.4178 72.5062 74.3447 73.4358L73.3486 86.2887C73.3187 86.6805 72.9867 86.986 72.5949 86.986H68.1589C67.7671 86.986 67.4351 86.6805 67.4052 86.2887L66.4091 73.4358C66.356 72.7419 65.911 72.1675 65.3034 71.9218V66.9978C65.3034 65.2812 64.7888 63.6808 63.9056 62.346C64.6228 61.1208 65.9475 60.3405 67.4185 60.3405H73.3352C75.5797 60.3405 77.406 62.1666 77.406 64.4112L77.4094 71.789ZM66.9076 51.7842C66.9076 49.8684 68.4682 48.3112 70.3807 48.3112C72.2965 48.3112 73.8537 49.8684 73.8537 51.7842C73.8537 53.7 72.2932 55.2572 70.3807 55.2572C68.4648 55.2572 66.9076 53.7 66.9076 51.7842ZM89.7412 65.5007L88.8746 66.9815C88.4596 67.7054 87.5498 68.0175 86.7895 67.6888L81.7492 65.5372C81.5035 65.431 81.2379 65.3845 80.9789 65.3945V64.4083C80.9789 60.8124 78.4821 57.7876 75.1285 56.9807C76.5397 55.6925 77.4229 53.8397 77.4229 51.7811C77.4229 47.8964 74.2619 44.7354 70.3771 44.7354C66.4924 44.7354 63.3347 47.8964 63.3347 51.7811C63.3347 53.8364 64.2179 55.6892 65.629 56.9774C63.8925 57.3925 62.3685 58.4019 61.3093 59.8163C60.4228 59.2651 59.4268 58.8733 58.3643 58.6807C60.1273 57.2563 61.2595 55.0782 61.2595 52.6378C61.2595 48.3545 57.7765 44.8749 53.4966 44.8749C51.8663 44.8749 50.3556 45.3796 49.1038 46.2396L47.2943 44.8749C46.6169 44.3768 46.431 43.4538 46.856 42.72L47.7193 41.2291C48.1376 40.4987 49.0275 40.1999 49.8044 40.5352L54.8446 42.6768C55.5021 42.959 56.2691 42.8162 56.7837 42.3149C58.7493 40.4123 61.1897 39.0112 63.836 38.2641C64.53 38.0682 65.038 37.4739 65.1243 36.7567L65.7684 31.3313C65.878 30.478 66.5753 29.8571 67.4319 29.8571H69.1385C69.9984 29.8571 70.699 30.4747 70.7986 31.3181L71.4527 36.7567C71.5391 37.4739 72.0471 38.0649 72.741 38.2608C75.3807 39.0045 77.8211 40.4057 79.8 42.3149C80.318 42.8129 81.0816 42.9524 81.739 42.6735L86.7925 40.5252C87.5562 40.1965 88.4527 40.4954 88.8743 41.2358L89.7343 42.7167C90.1593 43.4471 89.97 44.3735 89.2761 44.8815L84.9066 48.1786C84.3388 48.6069 84.0798 49.3308 84.2458 50.0214C84.5945 51.469 84.7638 52.8005 84.7638 54.0921C84.7638 55.4004 84.5945 56.7351 84.2458 58.1761C84.0798 58.8668 84.3355 59.5906 84.9033 60.0189L89.2927 63.3392C89.9734 63.8505 90.1626 64.7736 89.741 65.5007H89.7412Z" fill="#30333A"/>
<path d="M35.8123 43.4143C36.1543 43.7562 36.6092 43.9389 37.0741 43.9389C37.3032 43.9389 37.5356 43.8957 37.7581 43.8027C38.4255 43.5271 38.8604 42.8764 38.8604 42.1525V38.2844H39.6673C43.1603 38.2844 46.0024 35.4421 46.0024 31.9492V22.8517C46.0024 19.3587 43.1602 16.5165 39.6673 16.5165H19.7985C16.3055 16.5165 13.4634 19.3588 13.4634 22.8517V31.9458C13.4634 35.4388 16.3056 38.281 19.7985 38.281H30.6828L35.8123 43.4143ZM17.0324 31.9461V22.8519C17.0324 21.3279 18.2742 20.0861 19.7983 20.0861H39.667C41.1911 20.0861 42.4328 21.3279 42.4328 22.8519V31.9461C42.4328 33.4701 41.1911 34.7119 39.667 34.7119H37.0738C36.0877 34.7119 35.2875 35.5121 35.2875 36.4982V37.8429L32.681 35.2365C32.3457 34.9011 31.8908 34.7119 31.4193 34.7119H19.7981C18.274 34.7119 17.0323 33.4701 17.0323 31.9461H17.0324Z" fill="#30333A"/>
</g>
<defs>
<clipPath id="clip0_541_8">
<rect width="94" height="97" fill="white"/>
</clipPath>
</defs>
</svg>
