<svg width="80" height="86" viewBox="0 0 80 86" fill="none" xmlns="http://www.w3.org/2000/svg">
<ellipse cx="40" cy="55.9263" rx="30" ry="29.7474" fill="#FFA556"/>
<path d="M16.6905 20.9463C17.9402 21.5711 19.2807 21.8872 20.6684 21.8872C24.0796 21.8872 27.142 19.9908 28.6642 16.9429C30.8621 12.5399 29.0638 7.16304 24.6572 4.96545C23.4075 4.3406 22.067 4.0282 20.6793 4.0282C17.2681 4.0282 14.2021 5.92094 12.6799 8.97245C11.6155 11.1086 11.4447 13.528 12.2003 15.7912C12.9632 18.0508 14.5543 19.8854 16.6905 20.9462L16.6905 20.9463ZM15.1829 10.215C16.2291 8.11527 18.3361 6.81476 20.683 6.81476C21.6347 6.81476 22.5575 7.03273 23.4149 7.45777C26.4446 8.97265 27.6797 12.6673 26.1685 15.6934C25.1222 17.7931 23.0152 19.0937 20.6684 19.0937C19.7166 19.0937 18.7939 18.8757 17.9329 18.447C16.4652 17.7168 15.3717 16.4563 14.8522 14.9014C14.3328 13.3501 14.449 11.6828 15.1828 10.215H15.1829Z" fill="#30333A"/>
<path d="M59.5688 21.8875C60.9566 21.8875 62.2971 21.5714 63.5467 20.9466C65.6828 19.8822 67.274 18.0512 68.0296 15.788C68.7852 13.5247 68.6181 11.1052 67.5501 8.96922C66.028 5.9177 62.9655 4.02496 59.5506 4.02496C58.1628 4.02496 56.8223 4.34102 55.5727 4.96584C51.1661 7.16371 49.3678 12.5402 51.5657 16.9433C53.0951 19.9948 56.1612 21.8876 59.5688 21.8876L59.5688 21.8875ZM56.8225 7.46131C57.6834 7.03264 58.6026 6.81467 59.5543 6.81467C61.9011 6.81467 64.0082 8.11519 65.0544 10.2149C65.7846 11.6826 65.9045 13.3464 65.385 14.9049C64.8655 16.4598 63.772 17.7203 62.3044 18.4506C61.4434 18.8792 60.5243 19.0972 59.5725 19.0972C57.2258 19.0972 55.1187 17.7931 54.0724 15.6969C52.5575 12.6672 53.7927 8.97256 56.8224 7.46131H56.8225Z" fill="#30333A"/>
<path d="M78.9641 12.9148C78.5172 12.0175 77.7435 11.3454 76.7953 11.0294C75.8436 10.7097 74.8227 10.7788 73.9254 11.2292C73.0245 11.6761 72.3561 12.4499 72.0364 13.4016C70.8703 16.8927 68.6906 19.7155 65.9042 21.3502C63.0269 23.0359 59.7611 23.341 56.4591 22.2367C49.8801 20.0388 46.8829 13.1255 49.3279 5.80541C49.9854 3.84367 48.921 1.70764 46.9556 1.04641C46.0075 0.730363 44.9903 0.799387 44.0894 1.24985C43.1884 1.69669 42.52 2.47048 42.204 3.42224C39.2687 12.1991 40.1551 20.1873 44.5435 25.0299L43.5009 27.9107C42.3929 27.7763 41.2631 27.7 40.1187 27.7C39.0689 27.7 38.0335 27.7618 37.0127 27.8744L35.7412 24.979C40.0933 20.1293 40.9616 12.1664 38.0372 3.4179C37.3797 1.45616 35.2472 0.38815 33.2782 1.04566C31.3165 1.70683 30.2521 3.83929 30.906 5.80103C33.3545 13.1212 30.3574 20.0347 23.7783 22.2323C17.1993 24.4338 10.6458 20.7174 8.19712 13.3936C7.87744 12.4419 7.209 11.668 6.30811 11.2213C5.41081 10.7744 4.38998 10.7018 3.44185 11.0215C2.49009 11.3375 1.71986 12.0096 1.26946 12.9068C0.822623 13.8041 0.749972 14.825 1.06966 15.7767C3.98316 24.4846 9.43241 30.3154 15.7897 31.6053L17.0394 39.6702C17.0467 39.7065 17.0649 39.7356 17.0758 39.7719C13.9189 44.3129 12.0589 49.8206 12.0589 55.7568C12.0589 71.2292 24.6464 83.8167 40.1188 83.8167C55.5913 83.8167 68.1788 71.2292 68.1788 55.7568C68.1788 49.6028 66.1808 43.9067 62.8059 39.2707L64.3934 31.6163C70.7727 30.3448 76.2472 24.5105 79.1683 15.7775C79.4844 14.8293 79.4154 13.8121 78.9649 12.9148H78.9641ZM18.3941 30.1849C18.2997 29.5673 17.8056 29.0878 17.1844 29.0115C11.4736 28.314 6.43821 23.0355 3.71796 14.8941C3.63441 14.6471 3.65257 14.3855 3.76882 14.153C3.88507 13.9242 4.08125 13.7498 4.32827 13.6699C4.57167 13.5863 4.83324 13.6081 5.06574 13.7207C5.29824 13.837 5.46897 14.0368 5.55254 14.2802C8.51328 23.1333 16.5526 27.5904 24.6612 24.8775C32.7734 22.1638 36.5113 13.7687 33.5507 4.91509C33.38 4.40649 33.6561 3.85796 34.1611 3.68721C34.6697 3.5201 35.2182 3.79256 35.3889 4.29752C38.1099 12.4387 37.2634 19.6825 33.1184 23.675C32.697 24.0819 32.5735 24.7031 32.8096 25.2408L34.1683 28.3359C28.3958 29.5892 23.2771 32.619 19.4231 36.8294L18.3941 30.1849ZM22.0342 42.0461C22.0342 43.6628 20.7155 44.9814 19.099 44.9814H17.2717C18.1908 43.0379 19.3497 41.236 20.7119 39.6012C21.5148 40.1352 22.0343 41.0507 22.0343 42.0461L22.0342 42.0461ZM16.1527 47.7714H19.099C22.2558 47.7714 24.8242 45.203 24.8242 42.0461C24.8242 40.266 23.9705 38.624 22.6191 37.5596C27.1637 33.1894 33.329 30.4938 40.1143 30.4938C46.0794 30.4938 51.5644 32.5754 55.8917 36.0448H47.5217C44.1613 36.0448 41.4258 38.7803 41.4258 42.1406C41.4258 42.998 41.6256 43.819 41.9744 44.5928C41.335 45.0723 40.7029 45.6863 40.1071 46.5145C38.3161 44.0079 35.9549 42.9144 33.1794 43.2959C30.8834 43.6119 28.9908 44.7163 27.7156 46.4891C25.7794 49.1774 25.5831 52.7994 26.0481 55.2951C26.8219 59.4401 29.6883 63.4399 32.8234 66.2152C32.1985 65.979 31.5265 65.8446 30.8217 65.8446H25.467C25.2599 62.6114 22.5644 60.0466 19.2767 60.0466H15.2152C14.9755 58.6553 14.8447 57.2239 14.8447 55.7635C14.8483 52.9699 15.3097 50.2853 16.1524 47.7713L16.1527 47.7714ZM65.3116 53.9182H57.6064C57.0469 53.9182 56.542 54.2524 56.3204 54.7682C56.1024 55.2841 56.2114 55.8799 56.6001 56.2831C57.1341 56.8353 57.4284 57.5582 57.4284 58.3139C57.4284 59.371 56.8689 60.3155 55.9352 60.8496C55.4993 61.0966 55.2305 61.558 55.2305 62.0557C55.2268 62.5534 55.492 63.0184 55.9243 63.2691C56.8652 63.814 57.4283 64.7549 57.4283 65.783C57.4283 67.3741 56.0478 68.7182 54.4167 68.7182H49.8721C48.5207 68.7182 47.3836 67.8028 47.0493 66.5422C47.0711 66.5241 47.0893 66.5059 47.1111 66.4841C47.3618 66.2698 47.6124 66.0336 47.8631 65.8011C50.3225 63.5306 52.2406 60.846 53.3377 58.1214C53.4031 57.9615 53.4503 57.798 53.5121 57.6382C53.6247 57.3331 53.741 57.0315 53.8354 56.7264C53.9771 56.2505 54.097 55.771 54.1878 55.2878C54.1878 55.2805 54.1914 55.2732 54.1914 55.266C54.2423 54.9935 54.2823 54.7065 54.315 54.4086C54.3331 54.2669 54.3404 54.1144 54.3513 53.9654C54.3622 53.8056 54.3731 53.6494 54.3803 53.4859C54.3876 53.2861 54.3912 53.0863 54.3912 52.8792C54.3912 52.7702 54.3876 52.6612 54.384 52.5486C54.3767 52.3052 54.3658 52.0618 54.344 51.8112C54.3404 51.7567 54.3331 51.7022 54.3259 51.6477C54.2132 50.4379 53.919 49.1992 53.3922 48.0367C53.3741 47.9931 53.3595 47.9495 53.3377 47.9059C53.7773 47.539 53.9517 46.9432 53.77 46.3947C53.5811 45.8243 53.0471 45.4393 52.444 45.4393L51.6121 45.4465C51.6049 45.4393 51.5976 45.4356 51.5903 45.4284C51.3142 45.1632 51.02 44.9198 50.7076 44.6982C50.6458 44.6546 50.5804 44.6146 50.5187 44.5747C50.2607 44.4039 49.9919 44.2477 49.7158 44.1097C49.6432 44.0733 49.5741 44.0334 49.5015 44.0007C49.1781 43.8517 48.8439 43.7282 48.4988 43.6229C48.4007 43.5938 48.3027 43.5647 48.2046 43.5393C47.834 43.4376 47.4562 43.354 47.0602 43.2959C46.7442 43.2523 46.4354 43.2342 46.1302 43.2305C46.0939 43.2305 46.0539 43.2233 46.0176 43.2233C45.974 43.2233 45.9304 43.2305 45.8868 43.2305C45.7669 43.2342 45.6507 43.2414 45.5344 43.2487C45.4363 43.2559 45.3383 43.2632 45.2365 43.2741C45.1058 43.2886 44.975 43.3104 44.8442 43.3322C44.7461 43.3504 44.648 43.3649 44.5499 43.3867C44.5281 43.394 44.5027 43.394 44.4773 43.4013C44.3247 43.0489 44.2157 42.6275 44.2157 42.1443C44.2157 40.3206 45.698 38.8384 47.5216 38.8384H58.8564C62.5292 42.889 64.8942 48.1384 65.3119 53.9184L65.3116 53.9182ZM45.418 64.2607C45.3816 64.2897 45.3453 64.3224 45.3126 64.3551C43.2419 66.1206 41.1966 67.1888 40.1213 67.1888C37.6547 67.1888 30.0587 61.5543 28.7939 54.7826C28.4525 52.9443 28.5578 50.0962 29.9818 48.1236C30.8137 46.9683 32.0198 46.2744 33.5675 46.0601C33.8 46.0274 34.0252 46.0129 34.2395 46.0129C36.1468 46.0129 37.6144 47.248 38.8568 49.9036C39.0857 50.394 39.5906 50.6629 40.1283 50.7065C40.6732 50.7028 41.1637 50.3831 41.3889 49.8891C42.2535 47.9891 43.3288 46.7867 44.5967 46.2853C44.6439 46.2672 44.6911 46.2526 44.7347 46.2345C44.8945 46.1763 45.0617 46.1327 45.2251 46.1C45.276 46.0891 45.3232 46.0783 45.3741 46.071C45.5557 46.0419 45.7446 46.0238 45.9335 46.0201C45.9662 46.0201 45.9989 46.0129 46.0316 46.0165C46.2387 46.0165 46.4494 46.031 46.671 46.0637C47.0415 46.1146 47.3867 46.1981 47.7209 46.3035C47.8081 46.3289 47.8843 46.3725 47.9679 46.4016C48.2004 46.4888 48.4256 46.5832 48.6363 46.6995C48.7489 46.7612 48.8507 46.8339 48.956 46.9065C49.1122 47.0083 49.2648 47.1172 49.4101 47.2371C49.5373 47.3425 49.6571 47.4624 49.7734 47.5822C49.9405 47.7566 50.1113 47.9237 50.2566 48.1235C50.3401 48.2361 50.4019 48.3633 50.4745 48.4832C50.6089 48.7011 50.7325 48.9264 50.8414 49.1589C50.8487 49.1734 50.8523 49.1879 50.8596 49.2025C51.459 50.5248 51.6407 52.0397 51.5971 53.3366C51.5934 53.362 51.5934 53.3911 51.5898 53.4165C51.5789 53.6454 51.5644 53.8706 51.5426 54.085C51.5171 54.3284 51.4844 54.5645 51.4408 54.7825C51.3718 55.1494 51.2774 55.509 51.1757 55.8723C51.1466 55.974 51.1175 56.0758 51.0848 56.1775C50.9867 56.4863 50.8741 56.7914 50.7542 57.0966C50.6816 57.2746 50.6053 57.4526 50.5254 57.627C50.4709 57.7432 50.42 57.8558 50.3619 57.9721C49.4646 59.8212 48.1822 61.5213 46.8344 62.9199C46.7581 62.9999 46.6818 63.0762 46.6019 63.1524C46.413 63.3414 46.2277 63.523 46.0388 63.701C45.8318 63.8899 45.6247 64.0788 45.4176 64.2605L45.418 64.2607ZM15.8616 62.833H19.2765C21.1583 62.833 22.6914 64.3623 22.6914 66.2406C22.6914 66.4731 22.6659 66.7128 22.6151 66.949C22.5279 67.3595 22.6332 67.7881 22.8984 68.1151C23.1636 68.442 23.5596 68.631 23.981 68.631H30.8217C32.4201 68.631 33.717 69.9315 33.717 71.5263C33.717 73.1248 32.4165 74.4217 30.8217 74.4217H23.0983C19.7198 71.3411 17.1804 67.3449 15.8618 62.833L15.8616 62.833ZM40.1179 81.0331C35.2281 81.0331 30.6616 79.6308 26.7891 77.2186H30.8251C33.9603 77.2186 36.5105 74.6683 36.5105 71.5332C36.5105 70.2908 36.1036 69.1428 35.4243 68.2056C37.1608 69.3208 38.8283 69.982 40.1179 69.982C41.3858 69.982 43.0169 69.3427 44.7243 68.2601C45.6434 70.1927 47.6015 71.5114 49.872 71.5114H54.4166C57.6135 71.5114 60.2183 68.9431 60.2183 65.7862C60.2183 64.4129 59.6988 63.0943 58.7979 62.0698C59.6988 61.0417 60.2183 59.7121 60.2183 58.3171C60.2183 57.7685 60.1383 57.2272 59.9894 56.7113H65.3623C64.861 70.2038 53.7336 81.0327 40.1174 81.0327L40.1179 81.0331ZM76.519 14.898C73.798 23.0391 68.763 28.3141 63.0526 29.0154C62.4568 29.088 61.9773 29.5312 61.8574 30.1161L60.5241 36.5352C56.7569 32.5391 51.8308 29.6475 46.2905 28.3941L47.4602 25.1609C47.6491 24.6414 47.5147 24.0638 47.1188 23.6824C42.9774 19.6899 42.1273 12.4461 44.8519 4.30488C44.9354 4.06148 45.1062 3.86168 45.3387 3.74543C45.5675 3.62918 45.8327 3.61102 46.0761 3.69094C46.5847 3.86168 46.8608 4.41024 46.6901 4.91882C43.7293 13.772 47.4711 22.1675 55.5832 24.8813C59.6156 26.229 63.7861 25.8294 67.3245 23.7551C70.6957 21.7789 73.3113 18.4149 74.6955 14.284C74.779 14.037 74.9498 13.8372 75.1823 13.7246C75.4111 13.6083 75.6727 13.5901 75.9234 13.6737C76.1668 13.7573 76.3666 13.928 76.4828 14.1569C76.5845 14.3894 76.6027 14.6509 76.5191 14.898L76.519 14.898Z" fill="#30333A"/>
</svg>
