<svg width="81" height="81" viewBox="0 0 81 81" fill="none" xmlns="http://www.w3.org/2000/svg">
<ellipse cx="41" cy="32.9263" rx="30" ry="29.7474" fill="#FFA556"/>
<path d="M73.8816 57.4529C60.8183 55.1646 57.0156 47.9092 56.8459 47.5698L49.0855 32.436C48.7146 31.714 47.8901 31.3589 47.1011 31.5956H47.0853C48.0124 26.3602 49.9812 21.2946 52.8572 16.8163L61.9315 2.69244C62.4365 1.91916 62.1997 0.873631 61.4265 0.368631C60.6532 -0.136369 59.6077 0.100355 59.1027 0.873631L50.0284 14.9975C46.6433 20.2487 44.4221 26.2771 43.5462 32.4553C38.4962 33.4495 34.6259 32.9445 32.0656 30.9048C29.3709 28.7506 28.6647 25.2827 28.4793 23.2627L41.8456 2.69203C42.3506 1.91876 42.1336 0.873227 41.3564 0.368227C40.5831 -0.136773 39.5376 0.0802157 39.0326 0.857451L26.6954 19.8465C14.3391 19.377 7.6751 32.2028 6.24292 35.3156C3.54824 36.4597 1.71368 38.1602 0.837806 40.3656C-0.61013 43.9519 1.05479 47.4514 1.12582 47.6053C1.16133 47.6724 1.19289 47.7394 1.24418 47.8065C7.84473 57.654 18.7697 60.3962 19.2383 60.5143C26.19 62.1635 31.6623 68.8824 32.6723 70.2119C32.842 70.4289 33.0274 70.6657 33.2129 70.8669L33.3628 71.0523C35.2802 73.3406 37.4028 75.1751 39.6397 76.5402C47.1634 81.0695 54.7736 80.8683 54.9756 80.8683C55.3622 80.8998 55.7528 80.8998 56.1394 80.8998C73.1397 80.8998 80.4461 64.5904 80.5137 64.4207C80.5295 64.3852 80.5295 64.3378 80.5492 64.3023C80.565 64.2668 80.6005 64.2353 80.6005 64.184C80.9201 63.0241 80.7504 61.8602 80.1113 60.8502C78.5095 58.3448 74.3709 57.5361 73.8816 57.4532V57.4529ZM45.4986 35.4854C45.5657 35.4696 45.617 35.4696 45.684 35.4498C46.0391 35.367 46.3744 35.2999 46.7296 35.2131L53.8509 49.1006C53.9022 49.219 54.3559 50.1106 55.3816 51.3731L52.249 52.1464C50.951 52.466 49.6056 51.9767 48.8324 50.8839L38.5627 36.3419C40.6498 36.3419 42.9736 36.0736 45.4986 35.4858L45.4986 35.4854ZM39.0362 58.1588C38.5154 57.571 37.9907 56.9792 37.4384 56.4071C36.2272 55.1802 34.8976 53.9649 33.4655 52.7695L41.1903 45.8336L45.6012 52.079L39.0362 58.1588ZM25.1134 23.227C25.283 25.7875 26.1391 30.4667 29.9622 33.528C31.1221 34.4551 32.4516 35.1258 33.9351 35.5993L39.2219 43.0717L30.771 50.6822C30.3015 50.3271 29.8281 49.976 29.3388 49.6209C27.0663 48.0033 24.49 46.5751 21.0063 44.9575C15.1632 42.2629 11.0404 38.0374 9.52563 36.337C10.9578 33.3622 16.2603 23.8695 25.114 23.2272L25.1134 23.227ZM55.0114 77.5145C54.9443 77.5303 48.0242 77.6486 41.3764 73.6599C39.4392 72.5 37.6244 70.8982 35.9398 68.898L35.7898 68.7125C35.6399 68.5271 35.486 68.3417 35.3519 68.1563C34.2078 66.6768 28.0807 59.1491 20.0322 57.2321C19.9296 57.2163 9.99929 54.6913 4.14088 46.0393C3.95546 45.5856 3.19796 43.5143 3.99096 41.5771C4.48018 40.3659 5.50596 39.3717 7.05651 38.6142C8.82401 40.5986 13.2506 45.045 19.5987 47.9922C22.8969 49.5072 25.2878 50.8525 27.3906 52.336C30.3023 54.4073 32.8786 56.5615 35.0485 58.7511C35.9243 59.627 36.7133 60.5699 37.6248 61.647L37.6761 61.6983C40.2168 64.6927 49.5082 73.8698 65.1319 70.453C65.8736 70.3188 70.316 69.4272 74.3403 67.995C70.9512 72.3664 64.69 77.9214 55.0119 77.5151L55.0114 77.5145ZM64.4367 67.1822C52.3005 69.8413 44.5407 63.9825 41.2734 60.6685L47.9212 54.4901C48.9825 55.1648 50.1779 55.5829 51.4404 55.5829C51.9809 55.5829 52.5175 55.5159 53.058 55.3817L58.108 54.1192C61.1025 56.66 65.9 59.4573 73.2742 60.7513C74.5723 60.988 76.6593 61.7455 77.2314 62.6529C77.2827 62.72 77.3142 62.8028 77.334 62.8896C74.8918 64.6887 68.311 66.4404 64.4363 67.1821L64.4367 67.1822Z" fill="#30333A"/>
</svg>
