<svg width="60" height="75" viewBox="0 0 60 75" fill="none" xmlns="http://www.w3.org/2000/svg">
<ellipse cx="30" cy="40.9263" rx="30" ry="29.7474" fill="#FFA556"/>
<path d="M56.507 64.4811C55.8708 64.0726 55.4716 63.3802 55.4341 62.6224V55.549C55.4466 54.629 55.6337 53.7182 55.983 52.8668C57.1401 49.5952 57.7046 46.1427 57.6547 42.6744C57.7046 39.2126 57.137 35.7694 55.983 32.5075C55.6337 31.6561 55.4466 30.7454 55.4341 29.8253V22.7146C55.4653 21.9598 55.8676 21.2706 56.507 20.8683C57.7639 20.0168 58.6278 18.7039 58.9147 17.2131C59.1891 15.532 58.7775 13.8074 57.767 12.4351C57.5612 12.1419 57.3054 11.8862 57.006 11.6866C54.433 9.68125 50.7186 10.1366 48.7098 12.7095L48.5601 12.9091C48.1359 13.5609 47.4186 13.9633 46.639 13.982H45.3915L30.7208 0.421908C30.2374 -0.0459094 29.4702 -0.0459094 28.9867 0.421908L14.316 13.982H12.9437C12.1828 13.9508 11.4842 13.5485 11.0724 12.9091C9.1731 10.2551 5.4836 9.64061 2.8265 11.5368L2.6269 11.6865C2.3275 11.8861 2.07176 12.1419 1.86593 12.435C0.836704 13.801 0.412591 15.5257 0.69323 17.213C0.967682 18.6976 1.81914 20.0136 3.06353 20.8682C3.71536 21.2611 4.13012 21.9535 4.1738 22.7145V29.8003C4.14573 30.7298 3.94612 31.6466 3.58746 32.5074C2.42419 35.779 1.85652 39.2284 1.90331 42.6998C1.85965 46.1616 2.43038 49.6048 3.58746 52.8667C3.93677 53.7181 4.1239 54.6288 4.13637 55.5489V62.6223C4.1083 63.3801 3.70598 64.0756 3.06347 64.481C1.80662 65.3325 0.942748 66.6454 0.655801 68.1362C0.38135 69.8173 0.793031 71.5419 1.80351 72.9142C2.01558 73.2042 2.27133 73.4569 2.56448 73.6627C3.65606 74.4486 4.96281 74.8821 6.30701 74.9102C8.20633 74.9102 9.98406 73.9839 11.0725 72.4276C11.4967 71.7696 12.2233 71.3735 13.0062 71.3673H19.1564C19.7458 71.3673 20.3259 71.5045 20.853 71.7665C23.6661 73.0015 26.7131 73.619 29.7855 73.5753C32.8794 73.6284 35.9483 73.0109 38.7804 71.7665C39.3074 71.5045 39.8875 71.3673 40.477 71.3673H46.6272C47.3881 71.3922 48.0867 71.7883 48.4985 72.4276C49.4091 73.7033 50.7908 74.564 52.3408 74.8197C53.8877 75.0755 55.4721 74.7044 56.7445 73.7874L56.9815 73.6751C57.2747 73.4693 57.5304 73.2167 57.7425 72.9266C58.7717 71.5606 59.1958 69.8359 58.9152 68.1487C58.6376 66.6516 57.7706 65.3325 56.5075 64.4809L56.507 64.4811ZM29.7852 3.15405L41.4747 13.982H41.1254C40.5297 13.9695 39.9433 13.8074 39.4287 13.508C36.4347 12.0234 33.1257 11.2906 29.7856 11.3747C26.4267 11.2967 23.099 12.0421 20.0922 13.5454C19.5714 13.8323 18.9882 13.982 18.3956 13.982H18.1585L29.7852 3.15405ZM55.5961 71.4177C55.568 71.4582 55.5368 71.4894 55.4963 71.5175C54.7945 72.1069 53.8776 72.3813 52.9669 72.2753C52.0562 72.1693 51.2297 71.6921 50.6808 70.9561C49.7733 69.6057 48.2669 68.7823 46.6389 68.7481H40.4762C39.4969 68.7512 38.5332 68.9788 37.6568 69.4092C35.1774 70.4915 32.4921 71.0247 29.7851 70.9686C27.078 71.0247 24.3927 70.4914 21.9133 69.4092C21.0337 68.9851 20.0701 68.7574 19.0939 68.7481H12.9437C11.3157 68.773 9.80003 69.5932 8.88937 70.9437C8.3467 71.6859 7.51707 72.1694 6.60329 72.2754C5.68952 72.3814 4.77255 72.1039 4.07395 71.5051C4.03964 71.4832 4.00845 71.452 3.98662 71.4177C3.37846 70.6162 3.11652 69.6058 3.26306 68.6109C3.40964 67.8125 3.85563 67.0983 4.51057 66.6149C5.85788 65.726 6.67497 64.2259 6.69373 62.6104V55.5494C6.71556 54.3113 6.5066 53.0825 6.08245 51.9192C5.04389 48.9501 4.53866 45.822 4.58545 42.6752C4.53555 39.5253 5.04391 36.3909 6.08245 33.4185C6.54715 32.2677 6.79042 31.042 6.80601 29.8008V22.715C6.74363 21.115 5.90158 19.6461 4.54804 18.7853C3.89621 18.305 3.45023 17.597 3.30053 16.8017C3.15395 15.8068 3.41593 14.7964 4.02409 13.9949L4.08646 13.7953C4.73829 13.315 5.52423 13.0499 6.33198 13.0343C7.37054 13.0093 8.35609 13.5052 8.9517 14.3566C9.84991 15.6884 11.3376 16.5054 12.9437 16.5522H18.3953C19.437 16.5429 20.4599 16.2622 21.3644 15.7414C23.9873 14.4783 26.8784 13.8764 29.7852 13.9824C32.7012 13.8982 35.5923 14.5251 38.206 15.8163C39.1135 16.3246 40.1365 16.5897 41.1751 16.5897H46.6392C48.2641 16.5585 49.7705 15.7414 50.6811 14.3941C51.2207 13.6487 52.0471 13.1622 52.9579 13.0468C53.8716 12.9345 54.7917 13.2058 55.4966 13.7953C55.5371 13.8234 55.5683 13.8545 55.5964 13.8951C56.2014 14.6966 56.4571 15.7102 56.3074 16.702C56.164 17.5004 55.7149 18.2083 55.0599 18.6855C53.7188 19.5775 52.9049 21.0683 52.8768 22.6775V29.7634C52.8924 31.0047 53.1356 32.2303 53.6003 33.3811C54.6389 36.3533 55.1472 39.4876 55.0973 42.6378C55.1441 45.7847 54.6389 48.9128 53.6003 51.8818C53.1356 53.0357 52.8924 54.2676 52.8768 55.512V62.5854C52.8986 64.2009 53.722 65.701 55.0724 66.5899C55.7304 67.0639 56.1764 67.775 56.3199 68.5734C56.4758 69.5808 56.2138 70.6069 55.5963 71.4178L55.5961 71.4177Z" fill="#30333A"/>
<path d="M46.3028 21.8041H13.2688C12.9258 21.7885 12.5952 21.9101 12.3457 22.1471C12.0993 22.381 11.959 22.7085 11.959 23.0516V62.2357C11.959 62.5787 12.0993 62.9062 12.3457 63.1401C12.5952 63.3771 12.9258 63.4988 13.2688 63.4832H46.3028C46.6334 63.4832 46.9515 63.3522 47.1855 63.1183C47.4194 62.8844 47.5504 62.5663 47.5504 62.2356V23.1138C47.566 22.7707 47.4443 22.4402 47.2073 22.1907C46.9734 21.9443 46.6459 21.804 46.3029 21.804L46.3028 21.8041ZM45.0553 60.9259H14.5658V24.4117H45.005L45.0553 60.9259Z" fill="#30333A"/>
</svg>
