<svg width="90" height="105" viewBox="0 0 90 105" fill="none" xmlns="http://www.w3.org/2000/svg">
<ellipse cx="44" cy="29.9263" rx="30" ry="29.7474" fill="#FFA556"/>
<path d="M17.1672 46.2885C17.8169 45.0587 18.5401 43.8715 19.3328 42.7385C19.5339 42.4484 19.7389 42.1661 19.9516 41.8877C19.9903 41.8297 20.261 41.4816 20.114 41.6673C19.9593 41.8684 20.1527 41.6209 20.1914 41.5706C20.2494 41.4932 20.3151 41.4159 20.377 41.3385C20.8217 40.7894 21.278 40.2557 21.7498 39.7452C22.6857 38.7321 23.6834 37.773 24.7353 36.8835C24.9866 36.6708 25.238 36.4659 25.4894 36.2648C25.6054 36.1681 25.9457 35.9167 25.6363 36.1488C25.7987 36.0328 25.9534 35.909 26.1197 35.793C26.6689 35.3869 27.2335 35.0118 27.8019 34.6405C29.1477 33.782 30.5476 33.0163 31.9978 32.3589C32.926 31.9412 33.216 30.5335 32.6939 29.7098C32.0752 28.7508 31.0387 28.5691 30.0449 29.0137C24.6115 31.4887 19.9518 35.3946 16.4245 40.1898C15.4577 41.5124 14.5875 42.9046 13.8257 44.3586C13.3501 45.2481 13.5628 46.505 14.5218 47.0077C15.419 47.4601 16.6643 47.2436 17.167 46.2884L17.1672 46.2885Z" fill="#30333A"/>
<path d="M32.0096 88.7497C30.7412 88.1696 29.5153 87.5199 28.328 86.7851C27.7285 86.4177 27.1369 86.0194 26.5684 85.6172C26.2977 85.4239 26.0348 85.2305 25.7757 85.0371C25.706 84.9907 25.4856 84.8167 25.8066 85.0681C25.7486 85.0217 25.6906 84.9714 25.6326 84.9327C25.4779 84.809 25.3155 84.6813 25.1569 84.5537C24.0934 83.6836 23.0763 82.7362 22.1212 81.7384C21.6378 81.2279 21.1737 80.7019 20.7212 80.1605C20.5085 79.9091 20.3035 79.6578 20.1025 79.3948C19.9671 79.2208 20.1605 79.4721 20.1721 79.4915C20.1257 79.4335 20.087 79.3755 20.0367 79.3059C19.913 79.1434 19.7969 78.9888 19.6809 78.8225C18.7451 77.5385 17.9097 76.185 17.1672 74.7813C16.6916 73.8802 15.369 73.5361 14.5182 74.0852C13.6094 74.673 13.3194 75.779 13.8221 76.7342C16.5988 81.9936 20.7444 86.4796 25.7328 89.7201C27.1172 90.6211 28.5559 91.4023 30.0563 92.0868C30.9767 92.5044 32.1832 92.3768 32.7054 91.3907C33.1501 90.5476 32.9954 89.2019 32.0093 88.7494L32.0096 88.7497Z" fill="#30333A"/>
<path d="M57.0298 32.3276C58.3137 32.9077 59.5628 33.5651 60.7616 34.3076C61.361 34.675 61.9411 35.0617 62.5134 35.4678C62.7764 35.6534 63.0355 35.8468 63.2946 36.0479C63.3526 36.0943 63.4183 36.1329 63.4802 36.1832C63.4338 36.1445 63.1631 35.9318 63.4415 36.1523C63.5769 36.2606 63.7122 36.365 63.8476 36.481C64.9305 37.3627 65.9552 38.3179 66.922 39.3234C67.4054 39.8261 67.8695 40.3482 68.3142 40.8895C68.5269 41.1409 68.7318 41.3923 68.9252 41.6437C68.9832 41.721 69.165 41.9066 68.8943 41.605C68.9407 41.663 68.9793 41.721 69.0296 41.7906C69.1456 41.9453 69.2694 42.1077 69.3854 42.274C70.3135 43.5502 71.1449 44.8959 71.8797 46.2959C72.3554 47.1969 73.6779 47.5411 74.5287 46.992C75.4375 46.4042 75.7275 45.2982 75.2248 44.3429C72.4405 39.0758 68.2832 34.5667 63.2755 31.3413C61.9027 30.4518 60.4602 29.6706 58.9752 29.0016C58.0548 28.5839 56.8483 28.7115 56.3261 29.6977C55.8891 30.5291 56.0554 31.8826 57.03 32.3273L57.0298 32.3276Z" fill="#30333A"/>
<path d="M71.8996 74.7897C71.2422 76.0272 70.5152 77.2338 69.703 78.3861C69.5173 78.6569 69.324 78.9198 69.1306 79.1789C69.0339 79.3027 68.8212 79.643 69.0223 79.3259C68.9141 79.4883 68.771 79.643 68.6434 79.8015C68.218 80.3236 67.7848 80.838 67.3285 81.3291C66.3811 82.354 65.3756 83.3323 64.3121 84.2295C64.0607 84.4422 63.8094 84.6472 63.558 84.8483C63.4807 84.9063 63.4033 84.972 63.326 85.0339C63.3337 85.0262 63.5967 84.8328 63.4226 84.9565C63.2602 85.0726 63.1055 85.1963 62.9393 85.3123C62.3785 85.73 61.7985 86.1244 61.2106 86.5034C59.8764 87.3542 58.4727 88.1083 57.034 88.7657C56.1059 89.1834 55.8158 90.5911 56.3379 91.4148C56.9567 92.3739 57.9931 92.5556 58.9869 92.1109C64.4397 89.6359 69.1186 85.7107 72.6499 80.8962C73.6167 79.5813 74.4753 78.1968 75.241 76.7583C75.7166 75.8688 75.5039 74.6119 74.5449 74.1092C73.6516 73.6297 72.4024 73.8424 71.8997 74.7898L71.8996 74.7897Z" fill="#30333A"/>
<path d="M47.1882 22.8335C47.1882 22.9688 47.1805 23.1042 47.1689 23.2396C47.1611 23.4522 47.0529 23.3633 47.1882 23.1235C47.1031 23.2976 47.0915 23.5683 47.0335 23.75C47.0258 23.7887 46.9562 23.9898 46.9484 23.9898C46.9291 23.9898 47.1418 23.6108 46.9871 23.8738C46.9562 23.9202 46.6584 24.5389 46.6004 24.5235C46.5927 24.5235 46.9175 24.1561 46.67 24.4268C46.6004 24.5041 46.5347 24.5815 46.4573 24.6588C46.4186 24.6975 46.1015 25.0533 46.0397 25.0378C46.0783 25.0455 46.3954 24.8058 46.0783 24.9991C45.9933 25.0455 45.9043 25.1151 45.8076 25.1615C45.7303 25.2002 45.6529 25.2389 45.5872 25.2776C45.2392 25.4709 45.9352 25.1693 45.5795 25.2776C45.3668 25.3356 45.1618 25.3936 44.9607 25.4516C44.5817 25.5483 45.0961 25.4322 45.0845 25.4438C45.0651 25.4825 44.806 25.4632 44.7558 25.4748C44.5547 25.4825 44.3497 25.467 44.1447 25.467C43.7116 25.4477 44.4734 25.5444 44.2027 25.4748C44.0558 25.4361 43.9011 25.4052 43.758 25.3665C43.6729 25.3356 43.5956 25.3085 43.5183 25.2892C43.1509 25.1809 43.6343 25.3278 43.6265 25.3356C43.5879 25.3742 43.1431 25.0726 43.0658 25.0339C43.0735 25.0416 42.8531 24.8986 42.8531 24.887C42.9227 24.9334 42.9768 24.9836 43.0465 25.0416C42.9768 24.9952 42.9227 24.9334 42.8531 24.8792C42.6984 24.7323 42.5515 24.5776 42.42 24.4229C42.1415 24.1213 42.5553 24.6936 42.4509 24.4616C42.4122 24.3765 42.3349 24.2759 42.2769 24.1986C42.2189 24.1135 41.9598 23.5992 42.0913 23.8583C42.2266 24.1599 42.0603 23.7732 42.0526 23.7345C42.0217 23.6572 42.0062 23.5721 41.9752 23.4832C41.9443 23.3749 41.9288 23.2705 41.9056 23.1661C41.8747 23.0191 41.8863 23.081 41.925 23.3594C41.9172 23.2898 41.9172 23.2241 41.9056 23.1583C41.8863 22.9572 41.8863 22.7523 41.9056 22.5473C41.9056 22.5009 41.9134 22.4622 41.9134 22.412C41.9327 22.2379 41.9327 22.2379 41.9134 22.4042C41.9056 22.4429 41.9056 22.4893 41.894 22.528C41.9134 22.4429 41.925 22.354 41.9404 22.2766C41.9869 22.091 42.0758 21.9092 42.1029 21.7275C42.1493 21.4761 41.8824 22.1335 42.0835 21.7739C42.1415 21.6656 42.1995 21.5534 42.2692 21.4336C42.3078 21.3639 42.3658 21.2866 42.4045 21.2209C42.6172 20.8535 42.1145 21.5225 42.4045 21.2131C42.5205 21.0894 42.6249 20.9618 42.7525 20.8457C42.7835 20.8148 43.0039 20.5828 43.031 20.5944C43.0503 20.6021 42.6249 20.8651 42.9459 20.6717C43.1393 20.5557 43.3713 20.459 43.5569 20.3237C43.7696 20.1767 43.1122 20.459 43.5105 20.343C43.5956 20.3121 43.6729 20.285 43.7503 20.2657C43.8586 20.2347 43.963 20.2077 44.0674 20.1883C44.4232 20.111 44.0674 20.1032 44.0094 20.1806C44.0674 20.1032 44.5199 20.1497 44.6088 20.1497C44.7248 20.1497 44.8292 20.1574 44.9491 20.169C45.3436 20.1883 44.5547 20.0723 44.9568 20.1767C45.1695 20.2231 45.3745 20.2927 45.5756 20.3507C45.9933 20.4745 45.2082 20.1381 45.5833 20.3507C45.6916 20.4088 45.8038 20.4668 45.9236 20.5364C45.9933 20.575 46.0706 20.6331 46.1363 20.6717C46.4844 20.8728 45.8734 20.4204 46.1441 20.6717C46.3297 20.8457 46.4999 21.0198 46.6777 21.2054C46.8788 21.4258 46.5927 21.1203 46.6081 21.1087C46.6275 21.101 46.8015 21.4104 46.8092 21.4258C46.8672 21.5109 46.9059 21.6114 46.9639 21.7043C47.1766 22.0716 46.9446 21.5573 46.9716 21.712C47.0103 21.9324 47.1186 22.1683 47.165 22.4003C47.2617 22.7793 47.1457 22.265 47.1573 22.2766C47.2153 22.3385 47.1882 22.7639 47.1882 22.8335C47.2075 23.8466 48.0699 24.8135 49.1218 24.767C50.1582 24.7206 51.0747 23.9163 51.0553 22.8335C51.0167 20.0027 49.2378 17.5934 46.6003 16.646C44.1718 15.7759 41.2249 16.6073 39.593 18.5989C37.8412 20.7259 37.497 23.7616 38.9279 26.1709C40.3587 28.5685 43.1354 29.7287 45.8501 29.2259C48.8743 28.6652 51.0245 25.8615 51.0631 22.8451C51.0824 21.8319 50.162 20.8651 49.1295 20.9115C48.0583 20.9463 47.2075 21.7507 47.1882 22.8335L47.1882 22.8335Z" fill="#30333A"/>
<path d="M49.1799 29.0131C49.2882 29.0827 49.4429 29.16 49.528 29.2528C49.265 28.9512 49.381 29.1368 49.4699 29.2142C49.6324 29.3766 49.818 29.5313 49.9727 29.7053C50.05 29.7904 50.3787 30.0611 50.0191 29.744C50.0771 29.7904 50.1428 29.918 50.1815 29.976C50.3362 30.208 50.4715 30.4594 50.5992 30.7108C50.8119 31.1168 50.5218 30.4323 50.5992 30.7108C50.6301 30.8268 50.6765 30.9312 50.7152 31.0511C50.7732 31.2445 50.8892 31.5538 50.8699 31.7549C50.9008 31.3605 50.8505 31.5538 50.8505 31.6776C50.8505 31.8245 50.8699 31.9792 50.8699 32.1223V32.2306V35.4984C50.8699 35.6337 50.8621 35.7613 50.8699 35.8928C50.8892 36.326 51.0168 35.537 50.8621 35.9006C51.0478 35.4442 50.9704 35.6995 50.9085 35.7845C50.8003 35.9586 50.8312 35.9315 50.9936 35.6995C50.9356 35.7575 50.8776 35.8155 50.8196 35.8735C50.866 35.9199 51.1483 35.5254 50.9047 35.7884C50.866 35.8078 50.8273 35.8271 50.7887 35.8464C51.0594 35.7381 51.0903 35.7111 50.8969 35.7691C50.9666 35.7613 51.3533 35.7497 51.013 35.7381H50.866H48.6617H41.2096H38.5103C38.3556 35.7381 38.2009 35.7304 38.054 35.7381C37.9186 35.7381 37.7137 35.6685 38.17 35.7691C37.7639 35.6917 38.4987 36.0088 38.1623 35.7884C37.9225 35.626 38.2396 35.8851 38.2473 35.8735L38.1623 35.7884C38.0269 35.6337 38.0463 35.6724 38.2319 35.8967C38.2319 35.8967 38.0965 35.684 38.1081 35.6763C38.1468 35.7536 38.1777 35.831 38.2164 35.8967C38.17 35.684 38.17 35.7343 38.2164 36.0321C38.2241 36.0127 38.2087 35.916 38.2087 35.8851C38.2396 34.7443 38.2087 33.6034 38.2087 32.4627V31.9715C38.2087 31.8749 38.2164 31.7782 38.228 31.6699C38.2358 31.2638 38.1507 32.0373 38.2474 31.5345C38.2938 31.2716 38.3634 31.0241 38.4484 30.7804C38.4678 30.734 38.4794 30.6954 38.4948 30.6451C38.5722 30.444 38.5645 30.4711 38.4639 30.7147C38.4716 30.7147 38.6495 30.3589 38.6573 30.3357C38.7269 30.212 38.8042 30.0959 38.87 29.9799C38.9009 29.9413 38.9164 29.9026 38.9473 29.8639C39.0711 29.6899 39.0556 29.7092 38.9009 29.9219C38.986 29.9219 39.392 29.3805 39.4732 29.3109C39.5042 29.28 39.6859 29.1369 39.6859 29.1253C39.4732 29.28 39.4539 29.2993 39.6279 29.1717C39.7053 29.1137 39.7826 29.0634 39.86 29.017C40.6991 28.4562 41.1439 27.2884 40.556 26.368C40.0146 25.5288 38.8158 25.084 37.907 25.6719C35.7104 27.122 34.3801 29.4694 34.3491 32.1107C34.3414 33.2322 34.3491 34.3537 34.3491 35.4751C34.3491 36.3259 34.4652 37.138 34.937 37.8728C35.633 38.9634 36.8009 39.555 38.0771 39.5821C38.7346 39.6015 39.392 39.5821 40.0494 39.5821H48.2015H50.8002C52.9465 39.5821 54.6674 38.0663 54.7371 35.8696C54.7757 34.663 54.7371 33.4411 54.7371 32.2345C54.7293 29.5274 53.4145 27.1104 51.1406 25.6293C50.2898 25.0801 48.9672 25.4282 48.4915 26.3254C47.9811 27.327 48.2711 28.4214 49.1799 29.013L49.1799 29.0131Z" fill="#30333A"/>
<path d="M47.1882 87.9952C47.1882 88.1306 47.1805 88.2659 47.1689 88.4013C47.1611 88.614 47.0529 88.525 47.1882 88.2853C47.1031 88.4593 47.0915 88.73 47.0335 88.9118C47.0258 88.9504 46.9562 89.1515 46.9484 89.1515C46.9291 89.1515 47.1418 88.7725 46.9871 89.0355C46.9562 89.0819 46.6584 89.7007 46.6004 89.6852C46.5927 89.6852 46.9175 89.3178 46.67 89.5885C46.6004 89.6659 46.5347 89.7432 46.4573 89.8206C46.4186 89.8592 46.1015 90.215 46.0397 90.1995C46.0783 90.2073 46.3954 89.9675 46.0783 90.1609C45.9933 90.2073 45.9043 90.2769 45.8076 90.3233C45.7303 90.362 45.6529 90.4006 45.5872 90.4393C45.2392 90.6327 45.9352 90.331 45.5795 90.4393C45.3668 90.4973 45.1618 90.5553 44.9607 90.6133C44.5817 90.71 45.0961 90.594 45.0845 90.6056C45.0651 90.6443 44.806 90.6249 44.7558 90.6365C44.5547 90.6443 44.3497 90.6288 44.1447 90.6288C43.7116 90.6095 44.4734 90.7061 44.2027 90.6365C44.0558 90.5979 43.9011 90.5669 43.758 90.5282C43.6729 90.4973 43.5956 90.4702 43.5183 90.4509C43.1509 90.3426 43.6343 90.4896 43.6265 90.4973C43.5879 90.536 43.1431 90.2343 43.0658 90.1957C43.0735 90.2034 42.8531 90.0603 42.8531 90.0487C42.9227 90.0951 42.9768 90.1454 43.0465 90.2034C42.9768 90.157 42.9227 90.0951 42.8531 90.041C42.6984 89.894 42.5515 89.7393 42.42 89.5846C42.1415 89.283 42.5553 89.8553 42.4509 89.6233C42.4122 89.5382 42.3349 89.4377 42.2769 89.3604C42.2189 89.2753 41.9598 88.7609 42.0913 89.02C42.2266 89.3217 42.0603 88.935 42.0526 88.8963C42.0217 88.8189 42.0062 88.7339 41.9752 88.6449C41.9443 88.5366 41.9288 88.4322 41.9056 88.3278C41.8747 88.1809 41.8863 88.2427 41.925 88.5212C41.9172 88.4516 41.9172 88.3858 41.9056 88.3201C41.8863 88.119 41.8863 87.914 41.9056 87.709C41.9056 87.6626 41.9134 87.624 41.9134 87.5737C41.9327 87.3997 41.9327 87.3997 41.9134 87.566C41.9056 87.6046 41.9056 87.651 41.894 87.6897C41.9134 87.6046 41.925 87.5157 41.9404 87.4383C41.9869 87.2527 42.0758 87.071 42.1029 86.8892C42.1493 86.6378 41.8824 87.2953 42.0835 86.9356C42.1415 86.8273 42.1995 86.7152 42.2692 86.5953C42.3078 86.5257 42.3658 86.4483 42.4045 86.3826C42.6172 86.0152 42.1145 86.6842 42.4045 86.3749C42.5205 86.2511 42.6249 86.1235 42.7525 86.0075C42.7835 85.9766 43.0039 85.7445 43.031 85.7561C43.0503 85.7639 42.6249 86.0268 42.9459 85.8335C43.1393 85.7174 43.3713 85.6208 43.5569 85.4854C43.7696 85.3385 43.1122 85.6208 43.5105 85.5047C43.5956 85.4738 43.6729 85.4467 43.7503 85.4274C43.8586 85.3965 43.963 85.3694 44.0674 85.3501C44.4232 85.2727 44.0674 85.265 44.0094 85.3423C44.0674 85.265 44.5199 85.3114 44.6088 85.3114C44.7248 85.3114 44.8292 85.3191 44.9491 85.3307C45.3436 85.3501 44.5547 85.2341 44.9568 85.3385C45.1695 85.3849 45.3745 85.4545 45.5756 85.5125C45.9933 85.6362 45.2082 85.2998 45.5833 85.5125C45.6916 85.5705 45.8038 85.6285 45.9236 85.6981C45.9933 85.7368 46.0706 85.7948 46.1363 85.8335C46.4844 86.0346 45.8734 85.5821 46.1441 85.8335C46.3297 86.0075 46.4999 86.1815 46.6777 86.3671C46.8788 86.5876 46.5927 86.2821 46.6081 86.2705C46.6275 86.2627 46.8015 86.5721 46.8092 86.5876C46.8672 86.6726 46.9059 86.7732 46.9639 86.866C47.1766 87.2334 46.9446 86.719 46.9716 86.8737C47.0103 87.0942 47.1186 87.3301 47.165 87.5621C47.2617 87.9411 47.1457 87.4267 47.1573 87.4383C47.2153 87.5002 47.1882 87.9256 47.1882 87.9952C47.2075 89.0084 48.0699 89.9752 49.1218 89.9288C50.1582 89.8824 51.0747 89.078 51.0553 87.9952C51.0167 85.1644 49.2378 82.7551 46.6003 81.8077C44.1718 80.9376 41.2249 81.769 39.593 83.7607C37.8412 85.8876 37.497 88.9233 38.9279 91.3326C40.3587 93.7303 43.1354 94.8905 45.8501 94.3877C48.8743 93.8269 51.0245 91.0232 51.0631 88.0068C51.0824 86.9936 50.162 86.0268 49.1295 86.0732C48.0583 86.108 47.2075 86.9124 47.1882 87.9952L47.1882 87.9952Z" fill="#30333A"/>
<path d="M49.1799 94.1759C49.2882 94.2455 49.4429 94.3228 49.528 94.4157C49.265 94.114 49.381 94.2996 49.4699 94.377C49.6324 94.5394 49.818 94.6941 49.9727 94.8681C50.05 94.9532 50.3787 95.2239 50.0191 94.9068C50.0771 94.9532 50.1428 95.0808 50.1815 95.1388C50.3362 95.3709 50.4715 95.6222 50.5992 95.8736C50.8119 96.2797 50.5218 95.5952 50.5992 95.8736C50.6301 95.9896 50.6765 96.094 50.7152 96.2139C50.7732 96.4073 50.8892 96.7166 50.8699 96.9177C50.9008 96.5233 50.8505 96.7166 50.8505 96.8404C50.8505 96.9873 50.8699 97.142 50.8699 97.2851V97.3934V100.661C50.8699 100.797 50.8621 100.924 50.8699 101.056C50.8892 101.489 51.0168 100.7 50.8621 101.063C51.0478 100.607 50.9704 100.862 50.9085 100.947C50.8003 101.121 50.8312 101.094 50.9936 100.862C50.9356 100.92 50.8776 100.978 50.8196 101.036C50.866 101.083 51.1483 100.688 50.9047 100.951C50.866 100.971 50.8273 100.99 50.7887 101.009C51.0594 100.901 51.0903 100.874 50.8969 100.932C50.9666 100.924 51.3533 100.913 51.013 100.901H50.866H48.6617H41.2096H38.5103C38.3556 100.901 38.2009 100.893 38.054 100.901C37.9186 100.901 37.7137 100.831 38.17 100.932C37.7639 100.855 38.4987 101.172 38.1623 100.951C37.9225 100.789 38.2396 101.048 38.2473 101.036C38.2164 101.005 38.1893 100.978 38.1623 100.951C38.0269 100.797 38.0463 100.835 38.2319 101.06C38.2319 101.06 38.0965 100.847 38.1081 100.839C38.1468 100.916 38.1777 100.994 38.2164 101.06C38.17 100.847 38.17 100.897 38.2164 101.195C38.2241 101.176 38.2087 101.079 38.2087 101.048C38.2396 99.9071 38.2087 98.7663 38.2087 97.6255V97.1344C38.2087 97.0377 38.2164 96.941 38.228 96.8327C38.2358 96.4267 38.1507 97.2001 38.2474 96.6974C38.2938 96.4344 38.3634 96.1869 38.4484 95.9433C38.4678 95.8969 38.4794 95.8582 38.4948 95.8079C38.5722 95.6068 38.5645 95.6339 38.4639 95.8775C38.4716 95.8775 38.6495 95.5217 38.6573 95.4985C38.7269 95.3748 38.8042 95.2588 38.87 95.1428C38.9009 95.1041 38.9164 95.0654 38.9473 95.0267C39.0711 94.8527 39.0556 94.8721 38.9009 95.0847C38.986 95.0847 39.392 94.5433 39.4732 94.4737C39.5042 94.4428 39.6859 94.2997 39.6859 94.2881C39.4732 94.4428 39.4539 94.4621 39.6279 94.3345C39.7053 94.2765 39.7826 94.2262 39.86 94.1798C40.6991 93.6191 41.1439 92.4512 40.556 91.5308C40.0146 90.6916 38.8158 90.2469 37.907 90.8347C35.7104 92.2848 34.3801 94.6322 34.3491 97.2736C34.3414 98.395 34.3491 99.5165 34.3491 100.638C34.3491 101.489 34.4652 102.301 34.937 103.036C35.633 104.126 36.8009 104.718 38.0771 104.745C38.7346 104.764 39.392 104.745 40.0494 104.745H48.2015H50.8002C52.9465 104.745 54.6674 103.229 54.7371 101.032C54.7757 99.8259 54.7371 98.6039 54.7371 97.3973C54.7293 94.6902 53.4145 92.2733 51.1406 90.7921C50.2898 90.243 48.9672 90.591 48.4915 91.4882C47.9811 92.4898 48.2711 93.5842 49.1799 94.1759L49.1799 94.1759Z" fill="#30333A"/>
<path d="M81.5095 55.4144C81.5095 55.5498 81.5018 55.6851 81.4902 55.8205C81.4825 56.0332 81.3742 55.9442 81.5095 55.7045C81.4244 55.8785 81.4128 56.1492 81.3548 56.3309C81.3471 56.3696 81.2775 56.5707 81.2698 56.5707C81.2504 56.5707 81.4631 56.1917 81.3084 56.4547C81.2775 56.5011 80.9797 57.1199 80.9217 57.1044C80.914 57.1044 81.2388 56.737 80.9913 57.0077C80.9217 57.085 80.856 57.1624 80.7786 57.2397C80.74 57.2784 80.4228 57.6342 80.361 57.6187C80.3996 57.6265 80.7167 57.3867 80.3996 57.58C80.3146 57.6265 80.2256 57.6961 80.1289 57.7425C80.0516 57.7811 79.9742 57.8198 79.9085 57.8585C79.5604 58.0518 80.2565 57.7502 79.9008 57.8585C79.6881 57.9165 79.4831 57.9745 79.282 58.0325C78.903 58.1292 79.4174 58.0132 79.4058 58.0248C79.3864 58.0634 79.1273 58.0441 79.077 58.0557C78.876 58.0634 78.671 58.048 78.466 58.048C78.0329 58.0286 78.7947 58.1253 78.524 58.0557C78.3771 58.017 78.2224 57.9861 78.0793 57.9474C77.9942 57.9165 77.9169 57.8894 77.8395 57.8701C77.4722 57.7618 77.9556 57.9088 77.9478 57.9165C77.9092 57.9552 77.4644 57.6535 77.3871 57.6148C77.3948 57.6226 77.1744 57.4795 77.1744 57.4679C77.244 57.5143 77.2981 57.5646 77.3677 57.6226C77.2981 57.5762 77.244 57.5143 77.1744 57.4602C77.0197 57.3132 76.8727 57.1585 76.7413 57.0038C76.4628 56.7022 76.8766 57.2745 76.7722 57.0425C76.7335 56.9574 76.6562 56.8569 76.5982 56.7795C76.5402 56.6945 76.2811 56.1801 76.4126 56.4392C76.5479 56.7409 76.3816 56.3541 76.3739 56.3155C76.3429 56.2381 76.3275 56.153 76.2965 56.0641C76.2656 55.9558 76.2501 55.8514 76.2269 55.747C76.196 55.6 76.2076 55.6619 76.2463 55.9403C76.2385 55.8707 76.2385 55.805 76.2269 55.7393C76.2076 55.5382 76.2076 55.3332 76.2269 55.1282C76.2269 55.0818 76.2347 55.0432 76.2347 54.9929C76.254 54.8189 76.254 54.8189 76.2347 54.9852C76.2269 55.0238 76.2269 55.0702 76.2153 55.1089C76.2347 55.0238 76.2463 54.9349 76.2617 54.8575C76.3081 54.6719 76.3971 54.4902 76.4242 54.3084C76.4706 54.057 76.2037 54.7144 76.4048 54.3548C76.4628 54.2465 76.5208 54.1344 76.5904 54.0145C76.6291 53.9449 76.6871 53.8675 76.7258 53.8018C76.9385 53.4344 76.4358 54.1034 76.7258 53.7941C76.8418 53.6703 76.9462 53.5427 77.0738 53.4267C77.1048 53.3957 77.3252 53.1637 77.3523 53.1753C77.3716 53.183 76.9462 53.446 77.2672 53.2527C77.4606 53.1366 77.6926 53.04 77.8782 52.9046C78.0909 52.7577 77.4335 53.04 77.8318 52.9239C77.9169 52.893 77.9942 52.8659 78.0716 52.8466C78.1799 52.8157 78.2843 52.7886 78.3887 52.7693C78.7445 52.6919 78.3887 52.6842 78.3307 52.7615C78.3887 52.6842 78.8411 52.7306 78.9301 52.7306C79.0461 52.7306 79.1505 52.7383 79.2704 52.7499C79.6649 52.7693 78.876 52.6532 79.2781 52.7577C79.4908 52.8041 79.6958 52.8737 79.8969 52.9317C80.3146 53.0554 79.5295 52.719 79.9046 52.9317C80.0129 52.9897 80.1251 53.0477 80.2449 53.1173C80.3145 53.156 80.3919 53.214 80.4576 53.2527C80.8057 53.4537 80.1947 53.0013 80.4654 53.2527C80.651 53.4267 80.8211 53.6007 80.999 53.7863C81.2001 54.0068 80.914 53.7012 80.9294 53.6896C80.9488 53.6819 81.1228 53.9913 81.1305 54.0068C81.1885 54.0918 81.2272 54.1924 81.2852 54.2852C81.4979 54.6526 81.2659 54.1382 81.2929 54.2929C81.3316 54.5134 81.4399 54.7493 81.4863 54.9813C81.583 55.3603 81.467 54.8459 81.4786 54.8575C81.5404 54.9233 81.5095 55.3487 81.5095 55.4144C81.5288 56.4276 82.3912 57.3944 83.4431 57.348C84.4795 57.3016 85.396 56.4972 85.3766 55.4144C85.338 52.5836 83.5591 50.1743 80.9216 49.2269C78.4931 48.3568 75.5462 49.1882 73.9143 51.1799C72.1625 53.3068 71.8183 56.3425 73.2491 58.7518C74.68 61.1495 77.4567 62.3097 80.1714 61.8068C83.1956 61.2461 85.3458 58.4424 85.3844 55.426C85.4037 54.4128 84.4833 53.446 83.4508 53.4924C82.3796 53.5311 81.5288 54.3316 81.5095 55.4144L81.5095 55.4144Z" fill="#30333A"/>
<path d="M83.5012 61.591C83.6095 61.6606 83.7642 61.7379 83.8492 61.8307C83.5863 61.5291 83.7023 61.7147 83.7912 61.7921C83.9537 61.9545 84.1393 62.1092 84.294 62.2832C84.3713 62.3683 84.7 62.639 84.3404 62.3219C84.3984 62.3683 84.4641 62.4959 84.5028 62.5539C84.6575 62.7859 84.7928 63.0373 84.9205 63.2887C85.1331 63.6947 84.8431 63.0102 84.9205 63.2887C84.9514 63.4047 84.9978 63.5091 85.0365 63.629C85.0945 63.8223 85.2105 64.1317 85.1912 64.3328C85.2221 63.9383 85.1718 64.1317 85.1718 64.2555C85.1718 64.4024 85.1912 64.5571 85.1912 64.7002V64.8085V68.0763C85.1912 68.2116 85.1834 68.3392 85.1912 68.4707C85.2105 68.9038 85.3381 68.1149 85.1834 68.4784C85.3691 68.0221 85.2917 68.2774 85.2298 68.3624C85.1216 68.5365 85.1525 68.5094 85.3149 68.2774L85.1409 68.4514C85.1873 68.4978 85.4696 68.1033 85.226 68.3663C85.1873 68.3856 85.1486 68.405 85.1099 68.4243C85.3807 68.316 85.4116 68.2889 85.2182 68.347C85.2878 68.3392 85.6746 68.3276 85.3343 68.316H85.1873H82.983H75.5309H72.8316C72.6769 68.316 72.5222 68.3083 72.3753 68.316C72.2399 68.316 72.035 68.2464 72.4913 68.347C72.0852 68.2696 72.82 68.5867 72.4836 68.3663C72.2438 68.2039 72.5609 68.463 72.5686 68.4514C72.5377 68.4204 72.5106 68.3934 72.4836 68.3663C72.3482 68.2116 72.3675 68.2503 72.5532 68.4746C72.5532 68.4746 72.4178 68.2619 72.4294 68.2541C72.4681 68.3315 72.499 68.4088 72.5377 68.4746C72.4913 68.2619 72.4913 68.3122 72.5377 68.6099C72.5454 68.5906 72.53 68.4939 72.53 68.463C72.5609 67.3222 72.53 66.1813 72.53 65.0405V64.5494C72.53 64.4527 72.5377 64.3561 72.5493 64.2478C72.557 63.8417 72.472 64.6152 72.5686 64.1124C72.615 63.8494 72.6847 63.602 72.7697 63.3583C72.7891 63.3119 72.8007 63.2732 72.8161 63.223C72.8935 63.0219 72.8857 63.0489 72.7852 63.2926C72.7929 63.2926 72.9708 62.9368 72.9786 62.9136C73.0482 62.7898 73.1255 62.6738 73.1912 62.5578C73.2222 62.5191 73.2377 62.4805 73.2686 62.4418C73.3923 62.2678 73.3769 62.2871 73.2222 62.4998C73.3073 62.4998 73.7133 61.9584 73.7945 61.8888C73.8255 61.8578 74.0072 61.7148 74.0072 61.7032C73.7945 61.8578 73.7752 61.8772 73.9492 61.7496C74.0266 61.6916 74.1039 61.6413 74.1812 61.5949C75.0204 61.0341 75.4652 59.8662 74.8773 58.9458C74.3359 58.1066 73.1371 57.6619 72.2283 58.2497C70.0317 59.6999 68.7014 62.0473 68.6704 64.6886C68.6627 65.8101 68.6704 66.9315 68.6704 68.053C68.6704 68.9038 68.7864 69.7159 69.2582 70.4507C69.9543 71.5413 71.1222 72.1329 72.3984 72.16C73.0558 72.1794 73.7132 72.16 74.3707 72.16H82.5228H85.1215C87.2678 72.16 88.9886 70.6441 89.0583 68.4475C89.097 67.2409 89.0583 66.019 89.0583 64.8123C89.0506 62.1053 87.7358 59.6883 85.4619 58.2072C84.6111 57.658 83.2885 58.0061 82.8128 58.9032C82.3024 59.9126 82.5924 61.0031 83.5012 61.5909L83.5012 61.591Z" fill="#30333A"/>
<path d="M12.8669 55.4144C12.8669 55.5498 12.8592 55.6851 12.8476 55.8205C12.8399 56.0332 12.7316 55.9442 12.8669 55.7045C12.7819 55.8785 12.7702 56.1492 12.7122 56.3309C12.7045 56.3696 12.6349 56.5707 12.6272 56.5707C12.6078 56.5707 12.8205 56.1917 12.6658 56.4547C12.6349 56.5011 12.3371 57.1199 12.2791 57.1044C12.2714 57.1044 12.5962 56.737 12.3487 57.0077C12.2791 57.085 12.2134 57.1624 12.136 57.2397C12.0974 57.2784 11.7803 57.6342 11.7184 57.6187C11.757 57.6265 12.0742 57.3867 11.757 57.58C11.672 57.6265 11.583 57.6961 11.4863 57.7425C11.409 57.7811 11.3317 57.8198 11.2659 57.8585C10.9179 58.0518 11.614 57.7502 11.2582 57.8585C11.0455 57.9165 10.8405 57.9745 10.6394 58.0325C10.2604 58.1292 10.7748 58.0132 10.7632 58.0248C10.7438 58.0634 10.4847 58.0441 10.4345 58.0557C10.2334 58.0634 10.0284 58.048 9.82345 58.048C9.39032 58.0286 10.1522 58.1253 9.88146 58.0557C9.7345 58.017 9.57981 57.9861 9.43673 57.9474C9.35165 57.9165 9.27431 57.8894 9.19696 57.8701C8.82958 57.7618 9.31298 57.9088 9.30525 57.9165C9.26657 57.9552 8.82185 57.6535 8.7445 57.6148C8.75223 57.6226 8.53181 57.4795 8.53181 57.4679C8.60142 57.5143 8.65556 57.5646 8.72517 57.6226C8.65556 57.5762 8.60142 57.5143 8.53181 57.4602C8.37712 57.3132 8.23017 57.1585 8.09868 57.0038C7.82025 56.7022 8.23404 57.2745 8.12962 57.0425C8.09095 56.9574 8.0136 56.8569 7.9556 56.7795C7.89759 56.6945 7.63849 56.1801 7.76997 56.4392C7.90533 56.7409 7.73904 56.3541 7.7313 56.3155C7.70036 56.2381 7.6849 56.153 7.65396 56.0641C7.62302 55.9558 7.60755 55.8514 7.58435 55.747C7.55341 55.6 7.56501 55.6619 7.60368 55.9403C7.59595 55.8707 7.59595 55.805 7.58435 55.7393C7.56501 55.5382 7.56501 55.3332 7.58435 55.1282C7.58435 55.0818 7.59208 55.0432 7.59208 54.9929C7.61142 54.8189 7.61142 54.8189 7.59208 54.9852C7.58435 55.0238 7.58435 55.0702 7.57275 55.1089C7.59208 55.0238 7.60368 54.9349 7.61915 54.8575C7.66556 54.6719 7.75451 54.4902 7.78157 54.3084C7.82798 54.057 7.56114 54.7144 7.76224 54.3548C7.82025 54.2465 7.87826 54.1344 7.94786 54.0145C7.98653 53.9449 8.04454 53.8675 8.08321 53.8018C8.29591 53.4344 7.79317 54.1034 8.08321 53.7941C8.19923 53.6703 8.30365 53.5427 8.43126 53.4267C8.4622 53.3957 8.68263 53.1637 8.7097 53.1753C8.72903 53.183 8.30364 53.446 8.62462 53.2527C8.81798 53.1366 9.05001 53.04 9.23564 52.9046C9.44833 52.7577 8.79091 53.04 9.18923 52.9239C9.27431 52.893 9.35165 52.8659 9.429 52.8466C9.53728 52.8157 9.64169 52.7886 9.74611 52.7693C10.1019 52.6919 9.74611 52.6842 9.6881 52.7615C9.74611 52.6842 10.1986 52.7306 10.2875 52.7306C10.4035 52.7306 10.5079 52.7383 10.6278 52.7499C11.0223 52.7693 10.2334 52.6532 10.6356 52.7577C10.8483 52.8041 11.0532 52.8737 11.2543 52.9317C11.672 53.0554 10.8869 52.719 11.262 52.9317C11.3703 52.9897 11.4825 53.0477 11.6024 53.1173C11.672 53.156 11.7493 53.214 11.815 53.2527C12.1631 53.4537 11.5521 53.0013 11.8228 53.2527C12.0084 53.4267 12.1786 53.6007 12.3565 53.7863C12.5575 54.0068 12.2714 53.7012 12.2868 53.6896C12.3062 53.6819 12.4802 53.9913 12.4879 54.0068C12.5459 54.0918 12.5846 54.1924 12.6426 54.2852C12.8553 54.6526 12.6233 54.1382 12.6504 54.2929C12.689 54.5134 12.7973 54.7493 12.8437 54.9813C12.9404 55.3603 12.8244 54.8459 12.836 54.8575C12.8979 54.9233 12.8669 55.3487 12.8669 55.4144C12.8863 56.4276 13.7486 57.3944 14.8005 57.348C15.8369 57.3016 16.7535 56.4972 16.7341 55.4144C16.6954 52.5836 14.9165 50.1743 12.2791 49.2269C9.85049 48.3568 6.90365 49.1882 5.27173 51.1799C3.51993 53.3068 3.17571 56.3425 4.60657 58.7518C6.03742 61.1495 8.81407 62.3097 11.5289 61.8068C14.553 61.2461 16.7032 58.4424 16.7418 55.426C16.7611 54.4128 15.8407 53.446 14.8082 53.4924C13.737 53.5311 12.8862 54.3316 12.8669 55.4144L12.8669 55.4144Z" fill="#30333A"/>
<path d="M14.8586 61.591C14.9669 61.6606 15.1216 61.7379 15.2067 61.8307C14.9437 61.5291 15.0597 61.7147 15.1487 61.7921C15.3111 61.9545 15.4967 62.1092 15.6514 62.2832C15.7287 62.3683 16.0575 62.639 15.6978 62.3219C15.7558 62.3683 15.8216 62.4959 15.8602 62.5539C16.0149 62.7859 16.1503 63.0373 16.2779 63.2887C16.4906 63.6947 16.2005 63.0102 16.2779 63.2887C16.3088 63.4047 16.3552 63.5091 16.3939 63.629C16.4519 63.8223 16.5679 64.1317 16.5486 64.3328C16.5795 63.9383 16.5293 64.1317 16.5293 64.2555C16.5293 64.4024 16.5486 64.5571 16.5486 64.7002V64.8085V68.0763C16.5486 68.2116 16.5409 68.3392 16.5486 68.4707C16.5679 68.9038 16.6955 68.1149 16.5409 68.4784C16.7265 68.0221 16.6491 68.2774 16.5873 68.3624C16.479 68.5365 16.5099 68.5094 16.6723 68.2774C16.6143 68.3354 16.5563 68.3934 16.4983 68.4514C16.5447 68.4978 16.827 68.1033 16.5834 68.3663C16.5447 68.3856 16.5061 68.405 16.4674 68.4243C16.7381 68.316 16.769 68.2889 16.5757 68.347C16.6453 68.3392 17.032 68.3276 16.6917 68.316H16.5447H14.3404H6.88836H4.18903C4.03434 68.316 3.87965 68.3083 3.7327 68.316C3.59735 68.316 3.39239 68.2464 3.84872 68.347C3.44266 68.2696 4.17743 68.5867 3.84098 68.3663C3.60121 68.2039 3.91832 68.463 3.92606 68.4514C3.89512 68.4204 3.86805 68.3934 3.84098 68.3663C3.70563 68.2116 3.72496 68.2503 3.91059 68.4746C3.91059 68.4746 3.77524 68.2619 3.78684 68.2541C3.82551 68.3315 3.85645 68.4088 3.89513 68.4746C3.84872 68.2619 3.84872 68.3122 3.89513 68.6099C3.90286 68.5906 3.88739 68.4939 3.88739 68.463C3.91833 67.3222 3.88739 66.1813 3.88739 65.0405V64.5494C3.88739 64.4527 3.89513 64.3561 3.90673 64.2478C3.91446 63.8417 3.82939 64.6152 3.92607 64.1124C3.97247 63.8494 4.04208 63.602 4.12715 63.3583C4.14649 63.3119 4.15809 63.2732 4.17356 63.223C4.2509 63.0219 4.24317 63.0489 4.14262 63.2926C4.15036 63.2926 4.32825 62.9368 4.33598 62.9136C4.40559 62.7898 4.48294 62.6738 4.54867 62.5578C4.57961 62.5191 4.59508 62.4805 4.62602 62.4418C4.74977 62.2678 4.7343 62.2871 4.57961 62.4998C4.66469 62.4998 5.07074 61.9584 5.15195 61.8888C5.18289 61.8578 5.36464 61.7148 5.36464 61.7032C5.15195 61.8578 5.1326 61.8772 5.30663 61.7496C5.38397 61.6916 5.46132 61.6413 5.53867 61.5949C6.37785 61.0341 6.8226 59.8662 6.23476 58.9458C5.69334 58.1066 4.49453 57.6619 3.58571 58.2497C1.3891 59.6999 0.0588388 62.0473 0.0278518 64.6886C0.0201169 65.8101 0.0278518 66.9315 0.0278518 68.053C0.0278518 68.9038 0.14387 69.7159 0.615664 70.4507C1.31175 71.5413 2.47964 72.1329 3.75585 72.16C4.41326 72.1794 5.07066 72.16 5.72812 72.16H13.8802H16.4789C18.6253 72.16 20.3461 70.6441 20.4158 68.4475C20.4544 67.2409 20.4158 66.019 20.4158 64.8123C20.408 62.1053 19.0932 59.6883 16.8193 58.2072C15.9685 57.658 14.6459 58.0061 14.1703 58.9032C13.6598 59.9126 13.9498 61.0031 14.8586 61.5909L14.8586 61.591Z" fill="#30333A"/>
</svg>
