<svg width="77" height="89" viewBox="0 0 77 89" fill="none" xmlns="http://www.w3.org/2000/svg">
<ellipse cx="40" cy="43.9263" rx="30" ry="29.7474" fill="#FFA556"/>
<path d="M57.1474 30.6623H20.5324C19.5042 30.6623 18.6724 29.8268 18.6724 28.8023V7.87733C18.6724 6.84922 19.5043 6.01733 20.5324 6.01733H57.1474C57.6415 6.01733 58.1138 6.21351 58.4625 6.56226C58.8113 6.91101 59.0074 7.38327 59.0074 7.87737V28.8024C59.0074 29.2964 58.8113 29.7687 58.4625 30.1175C58.1138 30.4662 57.6415 30.6624 57.1474 30.6624V30.6623ZM22.3924 26.9423H55.2874V9.73733H22.3924V26.9423Z" fill="#30333A"/>
<path d="M59.7588 36.4173H17.9088C16.8807 36.4173 16.0488 35.5854 16.0488 34.5573C16.0488 33.5328 16.8807 32.6973 17.9088 32.6973H59.7588C60.7869 32.6973 61.6188 33.5328 61.6188 34.5573C61.6188 35.5854 60.7869 36.4173 59.7588 36.4173Z" fill="#30333A"/>
<path d="M30.4938 46.8798C30.2395 46.8835 29.9925 46.8326 29.76 46.7309C28.83 46.3095 28.4159 45.2196 28.83 44.286L33.3783 33.8235H33.3746C33.7924 32.8971 34.8786 32.4758 35.8122 32.879C36.7459 33.2859 37.1819 34.3649 36.7895 35.3021L32.2049 45.7646C31.907 46.444 31.2349 46.8835 30.4939 46.8799L30.4938 46.8798Z" fill="#30333A"/>
<path d="M57.1474 30.6623H20.5324C19.5042 30.6623 18.6724 29.8268 18.6724 28.8023V7.87733C18.6724 6.84922 19.5043 6.01733 20.5324 6.01733H57.1474C57.6415 6.01733 58.1138 6.21351 58.4625 6.56226C58.8113 6.91101 59.0074 7.38327 59.0074 7.87737V28.8024C59.0074 29.2964 58.8113 29.7687 58.4625 30.1175C58.1138 30.4662 57.6415 30.6624 57.1474 30.6624V30.6623ZM22.3924 26.9423H55.2874V9.73733H22.3924V26.9423Z" fill="#30333A"/>
<path d="M47.1753 46.8798C46.4378 46.8798 45.7694 46.4403 45.4751 45.7646L40.9269 35.3021C40.7234 34.848 40.7089 34.3321 40.8905 33.8671C41.0686 33.4021 41.4282 33.0315 41.8859 32.8317C42.34 32.6356 42.8595 32.6283 43.3209 32.8136C43.7823 33.0025 44.1492 33.3658 44.3418 33.8235L48.89 44.286C49.3005 45.2196 48.8864 46.3094 47.96 46.7308C47.713 46.8362 47.4442 46.887 47.1753 46.8798L47.1753 46.8798Z" fill="#30333A"/>
<path d="M38.8341 46.8798C37.806 46.8798 36.9741 46.0479 36.9741 45.0198V34.5573C36.9741 33.5328 37.806 32.6973 38.8341 32.6973C39.8622 32.6973 40.6941 33.5328 40.6941 34.5573V45.0198C40.6941 45.5138 40.4979 45.9861 40.1492 46.3349C39.8004 46.6836 39.3282 46.8798 38.8341 46.8798L38.8341 46.8798Z" fill="#30333A"/>
<path d="M38.8341 9.73742C37.806 9.73742 36.9741 8.90187 36.9741 7.87742V2.64979C36.9741 1.62168 37.806 0.789795 38.8341 0.789795C39.8622 0.789795 40.6941 1.62171 40.6941 2.64979V7.87742C40.6941 8.90191 39.8622 9.73742 38.8341 9.73742Z" fill="#30333A"/>
<path d="M37.625 84.5912C37.131 84.5912 36.655 84.395 36.3063 84.0427L0.908615 48.6376C0.189316 47.9146 0.189316 46.7412 0.908615 46.0147L6.80463 40.1077L6.80826 40.1113C7.15701 39.7626 7.62927 39.5664 8.12337 39.5664C8.61747 39.5664 9.08974 39.7626 9.43849 40.1113L44.8436 75.5164C45.1923 75.8652 45.3885 76.3374 45.3885 76.8315C45.3885 77.3256 45.1923 77.7979 44.8436 78.1467L38.9366 84.0427C38.5915 84.3914 38.1192 84.5912 37.6251 84.5912L37.625 84.5912ZM4.85367 47.2898L37.625 80.1012L40.8909 76.828L8.11583 44.053L4.85367 47.2898Z" fill="#30333A"/>
<path d="M47.1387 88.2098C46.9135 88.2098 46.6882 88.1699 46.4775 88.09L36.9664 84.4898C36.3706 84.2682 35.9311 83.7596 35.8003 83.1421C35.6659 82.5209 35.8548 81.8778 36.3053 81.4311L42.2195 75.5168C42.6663 75.07 43.3057 74.8811 43.9196 75.0119C44.5372 75.1463 45.0458 75.5786 45.271 76.1671L48.8893 85.6884C49.1036 86.2624 49.0273 86.9054 48.6786 87.4104C48.3262 87.9154 47.7522 88.2133 47.1383 88.2097L47.1387 88.2098ZM40.9738 82.0159L43.931 83.142L42.8048 80.174L40.9738 82.0159Z" fill="#30333A"/>
<path d="M51.3716 70.845C50.616 70.8487 49.9366 70.3946 49.6496 69.697C49.3626 68.9995 49.5261 68.1967 50.0601 67.6663L60.0688 57.6502C60.8026 56.9273 61.9833 56.9382 62.7025 57.672C63.4255 58.4058 63.4146 59.5865 62.6807 60.3094L52.6832 70.2957C52.3345 70.6481 51.8658 70.8443 51.3717 70.8443L51.3716 70.845Z" fill="#30333A"/>
<path d="M66.9303 63.0999C62.3056 63.0526 58.3568 59.7431 57.4991 55.1985C56.6418 50.6575 59.1121 46.1382 63.3989 44.4058C67.6892 42.6766 72.6044 44.2133 75.1401 48.0786C77.6795 51.9439 77.1345 57.0626 73.8396 60.31C72.005 62.13 69.513 63.1327 66.93 63.1L66.9303 63.0999ZM66.9303 47.421C64.4999 47.4101 62.3093 48.8705 61.3793 51.1156C60.4493 53.3607 60.9724 55.9436 62.698 57.651C65.0375 59.9833 68.8229 59.9833 71.1625 57.651C72.8881 55.9436 73.4076 53.3606 72.4812 51.1156C71.5512 48.8705 69.357 47.4101 66.9303 47.421Z" fill="#30333A"/>
<path d="M51.3716 70.845C50.616 70.8487 49.9366 70.3946 49.6496 69.697C49.3626 68.9995 49.5261 68.1967 50.0601 67.6663L60.0688 57.6502C60.8026 56.9273 61.9833 56.9382 62.7025 57.672C63.4255 58.4058 63.4146 59.5865 62.6807 60.3094L52.6832 70.2957C52.3345 70.6481 51.8658 70.8443 51.3717 70.8443L51.3716 70.845Z" fill="#30333A"/>
</svg>
