<svg width="89" height="80" viewBox="0 0 89 80" fill="none" xmlns="http://www.w3.org/2000/svg">
<ellipse cx="59" cy="49.7474" rx="30" ry="29.7474" fill="#FFA556"/>
<path d="M10.0198 0.85007C4.99076 0.85007 0.779785 5.06105 0.779785 10.0901V62.4501C0.779785 66.6761 4.25379 70.1501 8.47979 70.1501H53.9098C55.1189 70.1501 56.2198 69.0492 56.2198 67.8401V17.0201C56.2108 15.6636 55.2302 14.6981 53.9098 14.7101C51.687 14.7101 49.2898 12.3128 49.2898 10.0901C49.2898 7.86731 51.687 5.47007 53.9098 5.47007C55.1309 5.48812 56.2198 4.38121 56.2198 3.16007C56.2198 1.93893 55.1309 0.832052 53.9098 0.85007H10.0198ZM10.0198 5.47007H45.9449C45.1388 6.83559 44.6696 8.41771 44.6696 10.0901C44.6696 11.7624 45.1389 13.3446 45.9449 14.7101H10.0198C7.79703 14.7101 5.39979 12.3128 5.39979 10.0901C5.39979 7.86731 7.79703 5.47007 10.0198 5.47007ZM5.39979 18.055C6.7653 18.8581 8.35043 19.3302 10.0198 19.3302H23.8798V37.0402C23.8858 37.8975 24.3671 38.6825 25.131 39.0765C25.892 39.4675 26.8094 39.4074 27.5133 38.9171L33.8898 34.4415L40.2663 38.9171C40.9701 39.4074 41.8875 39.4675 42.6485 39.0765C43.4125 38.6825 43.8938 37.8975 43.8998 37.0402V19.3302H51.5998V65.5302H8.47979C6.73227 65.5302 5.39979 64.1977 5.39979 62.4502V18.055ZM28.4998 19.3302H39.2798V32.5889L35.2133 29.7495C34.4192 29.193 33.3605 29.193 32.5664 29.7495L28.4999 32.5889L28.4998 19.3302Z" fill="#30333A"/>
</svg>
