<svg width="93" height="88" viewBox="0 0 93 88" fill="none" xmlns="http://www.w3.org/2000/svg">
<ellipse cx="47" cy="43.7474" rx="30" ry="29.7474" fill="#FFA556"/>
<path d="M59.694 20.3821V10.1111C59.694 9.05354 59.3075 8.09354 58.5307 7.4223C57.754 6.65355 56.5907 6.17354 55.5222 6.27107C55.1357 6.27107 54.6507 6.36857 54.359 6.55982C54.2604 4.54228 52.6122 2.91105 50.479 2.91105C49.8007 2.91105 49.2172 3.1023 48.7322 3.29355C48.1487 1.85355 46.7922 0.893555 45.144 0.893555C43.4957 0.893555 42.1354 1.85355 41.5557 3.29355C40.9722 3.00481 40.4872 2.91105 39.809 2.91105C37.6757 2.91105 35.929 4.63982 35.929 6.75105V19.52C34.474 20.3825 33.504 21.7288 33.3107 23.4576L32.4355 28.64C32.049 31.4225 32.9205 34.2088 34.8605 36.32L39.5172 41.5025V44.5737H38.1608C37.4825 44.5737 36.899 45.1512 36.899 45.8225V53.0225C36.899 53.6937 37.4825 54.2712 38.1608 54.2712H38.4525V85.9512C38.4525 86.6225 39.0361 87.2 39.7143 87.2C40.3926 87.2 40.9761 86.6225 40.9761 85.9512V54.2712H54.3631V85.9512C54.3631 86.6225 54.9466 87.2 55.6248 87.2C56.3031 87.2 56.8866 86.6225 56.8866 85.9512V54.2712H57.1708C57.849 54.2712 58.4326 53.6937 58.4326 53.0225V45.8225C58.4326 45.1512 57.8491 44.5737 57.1708 44.5737H55.8143V41.5025L56.3979 41.12C59.0161 39.4887 60.6643 36.7024 60.6643 33.5375V33.3463C60.6643 30.3687 60.7628 26.2438 59.9861 22.4042C59.789 21.7292 59.6943 21.058 59.6943 20.3829L59.694 20.3821ZM55.9087 47.0711V51.8711H39.4187V47.0711H55.9087ZM58.1405 33.44V33.6313C58.1405 35.84 56.9773 37.9513 55.0373 39.1025L53.874 39.7738C53.4876 39.965 53.2905 40.3513 53.2905 40.8313V44.5738L41.9425 44.5775V41.12C41.9425 40.8312 41.844 40.5425 41.6507 40.3512L36.7022 34.7825C35.2472 33.2449 34.6636 31.1337 34.9554 29.0225L35.6337 23.84C35.8269 22.3025 37.0887 21.2488 38.6422 21.2488H38.7407L45.0457 21.3463C45.8225 21.3463 46.4022 22.0175 46.4022 22.7863C46.4022 23.1688 46.2089 23.555 45.9172 23.8438C45.6254 24.1325 45.2389 24.2263 44.8486 24.2263L40.4836 24.0351C39.9001 24.0351 39.3204 24.4176 39.2218 25.0926L38.8392 27.6801C38.7406 28.3513 39.2256 28.9288 39.9077 29.0225C40.586 29.12 41.1695 28.64 41.2642 27.965L41.4574 26.6225C45.7238 28.6401 45.436 32.765 45.436 32.9601C45.3374 33.6313 45.8224 34.2088 46.5045 34.3025H46.603C47.1865 34.3025 47.7662 33.8225 47.8648 33.245C48.058 31.5162 47.573 28.7338 45.3412 26.4275C46.118 26.33 46.8948 25.9475 47.573 25.3699C48.3498 24.6012 48.7362 23.6412 48.7362 22.5875C48.7362 20.4762 46.9895 18.7475 44.9548 18.7475L38.6498 18.65H38.5513H38.2595L38.2557 6.75077C38.2557 5.98202 38.934 5.31077 39.7107 5.31077C40.4875 5.31077 41.1657 5.98202 41.1657 6.75077V16.3508C41.1657 17.022 41.7492 17.5995 42.4275 17.5995C43.1058 17.5995 43.6893 17.022 43.6893 16.3508V4.73669C43.6893 3.96794 44.3675 3.29669 45.1443 3.29669C45.921 3.29669 46.5993 3.96794 46.5993 4.73669V16.9277C46.5993 17.599 47.1828 18.1765 47.8611 18.1765C48.5393 18.1765 49.1228 17.599 49.1228 16.9277L49.119 6.74981C49.119 5.98106 49.7973 5.30981 50.574 5.30981C51.3508 5.30981 52.029 5.98106 52.029 6.74981V18.5588C52.029 19.23 52.6126 19.8075 53.2908 19.8075C53.9691 19.8075 54.5526 19.23 54.5526 18.5588V10.3012C54.5526 9.43873 55.1361 8.7637 55.909 8.67C56.2955 8.67 56.7805 8.7675 57.0723 9.0525C57.364 9.34125 57.4588 9.72376 57.4588 10.11V20.3811C57.4588 21.1498 57.5573 22.0123 57.7505 22.9723C58.2393 26.6211 58.2393 30.5585 58.1408 33.4382L58.1405 33.44Z" fill="#30333A"/>
<path d="M91.8972 38.4311C91.704 37.6624 91.704 36.8936 91.704 36.3199V25.9509C91.704 24.8934 91.3175 23.9334 90.5407 23.2621C89.764 22.4934 88.6007 22.0134 87.5322 22.1109C87.1457 22.1109 86.7554 22.2084 86.369 22.3997C86.2704 20.3821 84.6222 18.7509 82.489 18.7509C81.8107 18.7509 81.2272 18.9421 80.7422 19.1334C80.1587 17.6934 78.8022 16.7334 77.154 16.7334C75.5057 16.7334 74.1454 17.6934 73.5657 19.1334C72.9822 18.8446 72.4972 18.7509 71.819 18.7509C69.6857 18.7509 67.939 20.4797 67.939 22.5909V35.3599C66.484 36.2224 65.514 37.5686 65.3207 39.2974L64.6425 44.4799C64.256 47.2623 65.1275 50.0486 67.0675 52.1599L71.7243 57.3423V60.4136H70.3678C69.6896 60.4136 69.106 60.9911 69.106 61.6623L69.1023 68.9599C69.1023 69.6311 69.6858 70.2086 70.364 70.2086H70.6558V85.9507C70.6558 86.622 71.2393 87.1995 71.9176 87.1995C72.5958 87.1995 73.1793 86.622 73.1793 85.9507L73.1755 70.1107H86.2705V85.8528C86.2705 86.524 86.8541 87.1016 87.5323 87.1016C88.2106 87.1016 88.7941 86.5241 88.7941 85.8528V70.1107H89.1806C89.8588 70.1107 90.4424 69.5332 90.4424 68.8619V61.6619C90.4424 60.9907 89.8588 60.4132 89.1806 60.4132H87.8241V57.4394L88.4077 57.0569C91.0259 55.4256 92.6741 52.6393 92.6741 49.4744V49.2832C92.5756 46.3994 92.6741 42.2706 91.8973 38.4304L91.8972 38.4311ZM87.824 62.9111V67.7111H71.334V62.9111H87.824ZM90.1504 49.377V49.5683C90.1504 51.7771 88.9872 53.8883 87.0472 55.0395L85.884 55.7108C85.4975 55.902 85.3005 56.2883 85.3005 56.7683V60.5108H73.9524V57.0532C73.9524 56.7645 73.8539 56.4757 73.6607 56.2845L68.7121 50.7157C67.2571 49.1782 66.6736 47.0669 66.9653 44.9557L67.6436 39.7732C67.8368 38.2357 69.0986 37.182 70.6521 37.182H70.7507L77.0557 37.2795C77.8324 37.2795 78.4121 37.9508 78.4121 38.7195C78.4121 39.102 78.2189 39.4883 77.9271 39.7771C77.6353 40.0658 77.2489 40.1595 76.8586 40.1595L72.4936 39.9683C71.91 39.9683 71.3303 40.3508 71.2318 41.0258L70.7506 43.6171C70.6521 44.2883 71.1371 44.8658 71.8191 44.9595C72.4974 45.057 73.0809 44.577 73.1756 43.902L73.3688 42.5595C77.6353 44.5771 77.3474 48.702 77.3474 48.8971C77.2489 49.5683 77.7339 50.1458 78.4159 50.2395H78.5144C79.0979 50.2395 79.6777 49.7595 79.7762 49.182C79.9694 47.4532 79.4844 44.6708 77.2527 42.3645C78.0294 42.267 78.8062 41.8845 79.4844 41.3069C80.2612 40.5382 80.6477 39.5782 80.6477 38.5245C80.6477 36.4132 78.9009 34.6845 76.8662 34.6845L70.5612 34.587H70.4627H70.1709L70.1671 22.5908C70.1671 21.8221 70.8454 21.1508 71.6221 21.1508C72.3989 21.1508 73.0771 21.8221 73.0771 22.5908V32.1908C73.0771 32.8621 73.6607 33.4396 74.3389 33.4396C75.0172 33.4396 75.6007 32.8621 75.6007 32.1908V20.6708C75.6007 19.9021 76.2789 19.2308 77.0557 19.2308C77.8325 19.2308 78.5107 19.9021 78.5107 20.6708V32.8618C78.5107 33.5331 79.0942 34.1106 79.7725 34.1106C80.4507 34.1106 81.0342 33.5331 81.0342 32.8618V22.5908C81.0342 21.8221 81.7125 21.1508 82.4892 21.1508C83.266 21.1508 83.9442 21.8221 83.9442 22.5908V34.3998C83.9442 35.071 84.5278 35.6485 85.206 35.6485C85.8843 35.6485 86.4678 35.071 86.4678 34.3998V26.1422C86.4678 25.2797 87.0513 24.6047 87.8242 24.511C88.2107 24.511 88.6957 24.6085 88.9875 24.8935C89.2792 25.1822 89.374 25.5647 89.374 25.951V36.32C89.374 37.0887 89.4725 37.9512 89.6657 38.9112C90.1507 42.4625 90.1507 46.4 90.1507 49.3771L90.1504 49.377Z" fill="#30333A"/>
<path d="M27.7782 36.32V25.951C27.7782 24.8935 27.3917 23.9335 26.615 23.2623C25.8382 22.4935 24.675 22.0135 23.6064 22.111C23.2199 22.111 22.8296 22.2085 22.4432 22.3998C22.3447 20.3823 20.6964 18.751 18.5632 18.751C17.8849 18.751 17.3014 18.9423 16.8164 19.1335C16.2329 17.6935 14.8764 16.7335 13.2282 16.7335C11.58 16.7335 10.2196 17.6935 9.63995 19.1335C9.05644 18.8448 8.5714 18.751 7.89318 18.751C5.75995 18.751 4.01317 20.4798 4.01317 22.591V35.36C2.55817 36.2225 1.58817 37.5688 1.39495 39.2975L0.716707 44.48C0.33022 47.2624 1.20171 50.0488 3.14171 52.16L7.50671 57.44V60.5112H6.24493C5.56669 60.5112 4.98316 61.0887 4.98316 61.76V68.96C4.98316 69.6312 5.56667 70.2088 6.24493 70.2088H6.53669V85.9508C6.53669 86.6221 7.1202 87.1996 7.79846 87.1996C8.47671 87.1996 9.06024 86.6221 9.06024 85.9508L9.05645 70.1108H22.4434V85.8529C22.4434 86.5242 23.0269 87.1017 23.7052 87.1017C24.3835 87.1017 24.967 86.5242 24.967 85.8529V70.1108H25.1602C25.8385 70.1108 26.422 69.5333 26.422 68.8621V61.6621C26.422 60.9908 25.8385 60.4133 25.1602 60.4133H23.8038V57.4395L24.3873 57.057C27.0055 55.4258 28.6537 52.6395 28.6537 49.4745V49.2833C28.6537 46.3057 28.7522 42.1808 27.9755 38.3412C27.877 37.5687 27.7785 36.8975 27.7785 36.3199L27.7782 36.32ZM23.9967 62.911V67.711H7.50673V62.911H23.9967ZM26.2285 49.377V49.5682C26.2285 51.777 25.0653 53.8882 23.1253 55.0394L21.9621 55.7107C21.5756 55.9019 21.3785 56.2882 21.3785 56.7682V60.5107H10.0266V57.0532C10.0266 56.7644 9.92812 56.4757 9.73488 56.2844L4.78632 50.7156C3.33132 49.1781 2.74777 47.0669 3.03955 44.9556L3.71779 39.7732C3.91103 38.2356 5.17279 37.1819 6.72634 37.1819H6.82486L13.1299 37.2794C13.9066 37.2794 14.4863 37.9507 14.4863 38.7194C14.4863 39.1019 14.2931 39.4882 14.0013 39.777C13.7095 40.0657 13.3231 40.1595 12.9328 40.1595L8.56775 39.9682C7.98424 39.9682 7.40453 40.3507 7.30598 41.0258L6.91949 43.7145C6.73004 44.1908 7.21504 44.862 7.89327 44.9596C8.57151 45.0571 9.15505 44.5771 9.24972 43.902L9.44296 42.5596C13.7094 44.5771 13.4215 48.702 13.4215 48.8971C13.323 49.5683 13.808 50.1459 14.4901 50.2396H14.5886C15.1721 50.2396 15.7518 49.7596 15.8504 49.182C16.0436 47.4533 15.5586 44.6708 13.3268 42.3645C14.1036 42.267 14.8804 41.8845 15.5586 41.307C16.3353 40.5382 16.7218 39.5782 16.7218 38.5245C16.7218 36.4133 14.975 34.6845 12.9404 34.6845L6.73013 34.5907H6.63161H6.33986L6.34365 22.5907C6.34365 21.822 7.02189 21.1507 7.79865 21.1507C8.5754 21.1507 9.25365 21.822 9.25365 22.5907V32.1907C9.25365 32.862 9.83716 33.4395 10.5154 33.4395C11.1937 33.4395 11.7772 32.862 11.7772 32.1907L11.7734 20.6707C11.7734 19.902 12.4517 19.2307 13.2284 19.2307C14.0052 19.2307 14.6834 19.902 14.6834 20.6707V32.8618C14.6834 33.533 15.2669 34.1105 15.9452 34.1105C16.6234 34.1105 17.207 33.533 17.207 32.8618V22.5907C17.207 21.822 17.8852 21.1507 18.662 21.1507C19.4387 21.1507 20.117 21.822 20.117 22.5907V34.3997C20.117 35.0709 20.7005 35.6485 21.3787 35.6485C22.057 35.6485 22.6405 35.071 22.6405 34.3997V26.1422C22.6405 25.2797 23.224 24.6046 23.997 24.5109C24.3834 24.5109 24.8684 24.6084 25.1602 24.8934C25.4519 25.1822 25.5467 25.5647 25.5467 25.951V36.3199C25.5467 37.0887 25.6452 37.9512 25.8384 38.9112C26.3234 42.4624 26.2287 46.3999 26.2287 49.3771L26.2285 49.377Z" fill="#30333A"/>
</svg>
