<svg width="103" height="72" viewBox="0 0 103 72" fill="none" xmlns="http://www.w3.org/2000/svg">
<ellipse cx="52" cy="33.9263" rx="30" ry="29.7474" fill="#FFA556"/>
<path d="M27.25 54.5H20.4375C15.7369 54.5 11.9219 58.315 11.9219 63.0156V69.8281C11.9219 70.7649 12.6883 71.5313 13.625 71.5313H34.0625C34.9992 71.5313 35.7656 70.7649 35.7656 69.8281V63.0156C35.7656 58.315 31.9506 54.5 27.25 54.5ZM32.3594 68.125H15.3281V63.0156C15.3281 60.2055 17.6274 57.9063 20.4375 57.9063H27.25C30.0601 57.9063 32.3594 60.2055 32.3594 63.0156V68.125Z" fill="#30333A"/>
<path d="M30.6563 47.6875C30.6563 43.9236 27.6076 40.875 23.8438 40.875C20.0799 40.875 17.0312 43.9236 17.0312 47.6875C17.0312 51.4514 20.0799 54.5 23.8438 54.5C27.6076 54.5 30.6563 51.4514 30.6563 47.6875ZM23.8438 51.0938C21.9703 51.0938 20.4375 49.561 20.4375 47.6875C20.4375 45.814 21.9703 44.2812 23.8438 44.2812C25.7172 44.2812 27.25 45.814 27.25 47.6875C27.25 49.561 25.7172 51.0938 23.8438 51.0938Z" fill="#30333A"/>
<path d="M39.1714 63.0151V69.8276C39.1714 70.7644 39.9378 71.5308 40.8745 71.5308H61.312C62.2487 71.5308 63.0151 70.7644 63.0151 69.8276V63.0151C63.0151 58.3145 59.2001 54.4995 54.4995 54.4995H47.687C42.9864 54.4995 39.1714 58.3145 39.1714 63.0151ZM54.499 57.9058C57.3091 57.9058 59.6083 60.205 59.6083 63.0151V68.1245H42.5771V63.0151C42.5771 60.205 44.8763 57.9058 47.6865 57.9058H54.499Z" fill="#30333A"/>
<path d="M57.9063 47.6875C57.9063 43.9236 54.8576 40.875 51.0938 40.875C47.3299 40.875 44.2812 43.9236 44.2812 47.6875C44.2812 51.4514 47.3299 54.5 51.0938 54.5C54.8576 54.5 57.9063 51.4514 57.9063 47.6875ZM51.0938 51.0938C49.2203 51.0938 47.6875 49.561 47.6875 47.6875C47.6875 45.814 49.2203 44.2812 51.0938 44.2812C52.9672 44.2812 54.5 45.814 54.5 47.6875C54.5 49.561 52.9672 51.0938 51.0938 51.0938Z" fill="#30333A"/>
<path d="M66.4214 63.0151V69.8276C66.4214 70.7644 67.1878 71.5308 68.1245 71.5308H88.562C89.4987 71.5308 90.2651 70.7644 90.2651 69.8276V63.0151C90.2651 58.3145 86.4501 54.4995 81.7495 54.4995H74.937C70.2364 54.4995 66.4214 58.3145 66.4214 63.0151ZM81.749 57.9058C84.5591 57.9058 86.8583 60.205 86.8583 63.0151V68.1245H69.8271V63.0151C69.8271 60.205 72.1263 57.9058 74.9365 57.9058H81.749Z" fill="#30333A"/>
<path d="M85.1563 47.6875C85.1563 43.9236 82.1076 40.875 78.3438 40.875C74.5799 40.875 71.5312 43.9236 71.5312 47.6875C71.5312 51.4514 74.5799 54.5 78.3438 54.5C82.1076 54.5 85.1563 51.4514 85.1563 47.6875ZM78.3438 51.0938C76.4703 51.0938 74.9375 49.561 74.9375 47.6875C74.9375 45.814 76.4703 44.2812 78.3438 44.2812C80.2172 44.2812 81.75 45.814 81.75 47.6875C81.75 49.561 80.2172 51.0938 78.3438 51.0938Z" fill="#30333A"/>
<path d="M64.7188 0H37.4688C35.5953 0 34.0625 1.53276 34.0625 3.40625V22.1412C34.0625 24.0147 35.5953 25.5474 37.4688 25.5474H44.8603L49.5268 36.4304C49.7993 37.0606 50.4124 37.4693 51.0936 37.4693C51.7749 37.4693 52.388 37.0606 52.6605 36.4304L57.327 25.5474H64.7185C66.592 25.5474 68.1248 24.0147 68.1248 22.1412V3.40625C68.1248 1.53276 66.592 0 64.7185 0H64.7188ZM64.7188 22.1401H56.2031C55.5219 22.1401 54.9088 22.5488 54.6363 23.179L51.0938 31.4562L47.5513 23.179C47.2788 22.5488 46.6656 22.1401 45.9844 22.1401H37.4688V3.40516H64.7188V22.1401Z" fill="#30333A"/>
<path d="M27.25 3.40527H3.40625C1.53276 3.40527 0 4.93803 0 6.81152V25.5464C0 27.4199 1.53276 28.9527 3.40625 28.9527H12.7053L19.0068 38.4051C19.3304 38.8819 19.8583 39.1715 20.4204 39.1715C20.5907 39.1715 20.744 39.1544 20.9143 39.1033C21.6296 38.8819 22.1235 38.2177 22.1235 37.4683V28.9527H27.2329C29.1064 28.9527 30.6392 27.42 30.6392 25.5465V6.81154C30.6392 4.93805 29.1064 3.40529 27.2329 3.40529L27.25 3.40527ZM27.25 25.5454H20.4375C19.5008 25.5454 18.7344 26.3118 18.7344 27.2485V31.847L15.0386 26.3118C14.715 25.835 14.1871 25.5454 13.625 25.5454H3.40625V6.81052H27.25V25.5454Z" fill="#30333A"/>
<path d="M10.2187 22.1401H20.4375C22.311 22.1401 23.8437 20.6073 23.8437 18.7338V15.3276C23.8437 13.4541 22.311 11.9213 20.4375 11.9213H18.7343V10.2182C18.7343 9.53694 18.3256 8.90681 17.6784 8.65131C17.0312 8.37881 16.3159 8.53209 15.822 9.026L12.9097 11.9384H10.2017V10.2352H6.79541V23.8602H10.2017V22.1571L10.2187 22.1401ZM10.2187 15.3276H13.625C14.0848 15.3276 14.5106 15.1402 14.8342 14.8337L15.4473 14.2205C15.6858 14.8677 16.3159 15.3275 17.0483 15.3275H20.4546V18.7338H10.2358V15.3275L10.2187 15.3276Z" fill="#30333A"/>
<path d="M102.188 25.5464V6.81152C102.188 4.93803 100.655 3.40527 98.7812 3.40527H74.9375C73.064 3.40527 71.5312 4.93803 71.5312 6.81152V25.5464C71.5312 27.4199 73.064 28.9527 74.9375 28.9527H80.0469V37.4683C80.0469 38.2177 80.5408 38.8819 81.2561 39.1033C81.4264 39.1544 81.5797 39.1714 81.75 39.1714C82.3121 39.1714 82.84 38.8989 83.1636 38.405L89.4651 28.9527H98.7642C100.638 28.9527 102.17 27.4199 102.17 25.5464L102.188 25.5464ZM88.5625 25.5464C88.0005 25.5464 87.4555 25.836 87.1489 26.3128L83.4531 31.848V27.2495C83.4531 26.3128 82.6867 25.5464 81.75 25.5464H74.9375V6.81144H98.7812V25.5464L88.5625 25.5464Z" fill="#30333A"/>
<path d="M91.9688 10.2176H81.75C79.8765 10.2176 78.3438 11.7503 78.3438 13.6238V17.0301C78.3438 18.9035 79.8765 20.4363 81.75 20.4363H83.4531V22.1394C83.4531 22.8207 83.8619 23.4508 84.5091 23.7063C84.7134 23.7915 84.9348 23.8426 85.1562 23.8426C85.5991 23.8426 86.0419 23.6722 86.3655 23.3487L89.2779 20.4363H91.9859V22.1394H95.3921V8.5144H91.9859V10.2175L91.9688 10.2176ZM91.9688 17.0301H88.5625C88.1027 17.0301 87.6769 17.2174 87.3533 17.524L86.7401 18.1371C86.5017 17.4899 85.8715 17.0301 85.1391 17.0301H81.7329V13.6238H91.9516V17.0301L91.9688 17.0301Z" fill="#30333A"/>
<path d="M49.885 21.6288C50.2086 21.9524 50.6344 22.1397 51.0942 22.1397C51.5541 22.1397 51.9799 21.9524 52.3035 21.6288L59.7802 14.0839C61.807 12.0402 61.807 8.70204 59.7802 6.65829C57.8046 4.66566 54.3472 4.66566 52.3716 6.65829L51.0942 7.95267L49.8169 6.65829C47.8412 4.66566 44.3839 4.66566 42.4082 6.65829C40.3815 8.70204 40.3815 12.0402 42.4082 14.0839L49.885 21.6288ZM44.8267 9.04256C45.1674 8.70193 45.6272 8.49756 46.1041 8.49756C46.581 8.49756 47.0408 8.6849 47.3815 9.04256L49.868 11.5632C50.5152 12.2104 51.6392 12.2104 52.2865 11.5632L54.773 9.04256C55.4542 8.34428 56.6465 8.34428 57.3447 9.04256C58.06 9.7749 58.06 10.9501 57.3447 11.6824L51.0772 18.0181L44.8097 11.6824C44.0944 10.9501 44.0944 9.77493 44.8097 9.04256H44.8267Z" fill="#30333A"/>
</svg>
