<svg width="15" height="15" viewBox="0 0 15 15" fill="none" xmlns="http://www.w3.org/2000/svg">
<path d="M7.50015 0.370117C5.44363 0.370117 3.4878 1.25868 2.13471 2.80674C0.780766 4.35386 0.161744 6.4113 0.434869 8.44887C0.708891 10.4865 1.849 12.3067 3.56241 13.4433C5.27662 14.5789 7.39697 14.9204 9.38072 14.3777C11.3645 13.8359 13.0175 12.464 13.9152 10.6151C14.8136 8.76523 14.8693 6.61795 14.0688 4.72413C13.5235 3.43307 12.6088 2.33167 11.4408 1.55703C10.2729 0.782576 8.90185 0.370186 7.50023 0.370186L7.50015 0.370117ZM4.05015 12.1001C4.49218 11.2574 5.228 10.6051 6.11835 10.2673C7.00871 9.93039 7.99159 9.93039 8.88203 10.2673C9.77239 10.6051 10.5082 11.2574 10.9502 12.1001C9.95478 12.8467 8.74459 13.2501 7.50024 13.2501C6.25589 13.2501 5.04568 12.8467 4.05024 12.1001H4.05015ZM5.89015 7.04012C5.89015 6.38876 6.28276 5.80207 6.88382 5.55229C7.48577 5.30343 8.17846 5.44089 8.63846 5.90178C9.09936 6.36178 9.23683 7.05447 8.98795 7.65643C8.73819 8.25748 8.15151 8.65009 7.50012 8.65009C6.61067 8.65009 5.89012 7.92955 5.89012 7.04009L5.89015 7.04012ZM11.9644 11.118C11.4047 10.2367 10.5988 9.53856 9.64559 9.11C10.482 8.2475 10.7201 6.96902 10.252 5.86309C9.78393 4.75711 8.69953 4.03926 7.49916 4.03926C6.29794 4.03926 5.21353 4.75711 4.74537 5.86309C4.27727 6.96907 4.51627 8.2475 5.35181 9.11C4.40037 9.53677 3.59447 10.2339 3.03295 11.1135C2.11564 9.98237 1.66105 8.54579 1.76167 7.09311C1.8614 5.64034 2.51007 4.27929 3.57471 3.28546C4.63936 2.29179 6.041 1.73924 7.49736 1.73924C8.95372 1.73924 10.3563 2.29177 11.4209 3.28546C12.4856 4.27913 13.1334 5.6402 13.234 7.09311C13.3346 8.54588 12.88 9.98237 11.9618 11.1135L11.9644 11.118Z" fill="#30333A"/>
</svg>
