<svg width="13" height="12" viewBox="0 0 13 12" fill="none" xmlns="http://www.w3.org/2000/svg">
<path d="M5.10007 0C3.46803 0.0007812 1.93447 0.78282 0.975072 2.104C0.0164723 3.42432 -0.252268 5.125 0.252412 6.6774C0.757092 8.22974 1.97429 9.4462 3.52661 9.9508C5.07973 10.4547 6.77981 10.1852 8.10001 9.2258L10.6398 11.7656C10.9523 12.0789 11.4594 12.0789 11.7719 11.7656C12.0844 11.4531 12.0844 10.9468 11.7719 10.6344L9.23205 8.09456V8.09378C9.97423 7.07424 10.311 5.81558 10.1789 4.56178C10.0469 3.30788 9.45471 2.14698 8.51643 1.30478C7.57815 0.461819 6.36103 -0.0030412 5.10003 9.88007e-05L5.10007 0ZM5.10007 8.6C4.17195 8.6 3.28131 8.23124 2.62507 7.575C1.96883 6.91876 1.60007 6.02812 1.60007 5.1C1.60007 4.17188 1.96883 3.28124 2.62507 2.625C3.28131 1.96876 4.17195 1.6 5.10007 1.6C6.02819 1.6 6.91883 1.96876 7.57507 2.625C8.23131 3.28124 8.60007 4.17188 8.60007 5.1C8.59929 6.02812 8.22975 6.91718 7.57351 7.5734C6.91727 8.22962 6.02819 8.59918 5.10011 8.59996L5.10007 8.6Z" fill="#30333A"/>
</svg>
