<svg width="16" height="10" viewBox="0 0 16 10" fill="none" xmlns="http://www.w3.org/2000/svg">
<path d="M15.9152 8.67979C15.8958 8.63803 15.8777 8.6034 15.861 8.57565C15.5834 8.07569 15.0529 7.46201 14.2698 6.73446L14.2533 6.7178L14.245 6.70963L14.2366 6.70125H14.2282C13.8728 6.36247 13.6478 6.13468 13.5535 6.01805C13.3811 5.79589 13.3425 5.57101 13.4367 5.34316C13.5033 5.17101 13.7534 4.80745 14.1865 4.25199C14.4143 3.95762 14.5947 3.72168 14.7279 3.54393C15.6888 2.26652 16.1053 1.45023 15.9775 1.09476L15.9279 1.01169C15.8946 0.961674 15.8085 0.915923 15.6698 0.874198C15.5308 0.832561 15.3531 0.825675 15.1365 0.853424L12.7373 0.869997C12.6985 0.856225 12.643 0.857508 12.5707 0.874198C12.4985 0.890888 12.4623 0.899262 12.4623 0.899262L12.4206 0.920125L12.3874 0.945188C12.3597 0.961761 12.3291 0.990911 12.2958 1.03258C12.2626 1.0741 12.2348 1.12282 12.2127 1.17835C11.9515 1.85035 11.6545 2.47514 11.3212 3.05269C11.1157 3.39708 10.927 3.69554 10.7546 3.94825C10.5825 4.20087 10.4381 4.387 10.3215 4.50631C10.2048 4.62573 10.0995 4.72141 10.0049 4.79368C9.91046 4.86599 9.83836 4.89653 9.78844 4.88536C9.7384 4.87418 9.69128 4.8631 9.64666 4.85201C9.56896 4.802 9.50646 4.73398 9.45934 4.64791C9.41201 4.56183 9.38015 4.4535 9.36349 4.32298C9.34692 4.19238 9.33711 4.08005 9.33431 3.9856C9.33171 3.89126 9.33291 3.75783 9.33854 3.58568C9.34432 3.41345 9.34692 3.29691 9.34692 3.23581C9.34692 3.02474 9.35103 2.79566 9.35929 2.54852C9.36769 2.30138 9.37449 2.10557 9.38018 1.96131C9.38584 1.81691 9.38847 1.66414 9.38847 1.50307C9.38847 1.34201 9.37866 1.2157 9.35929 1.12402C9.34015 1.03246 9.31077 0.943584 9.27205 0.857421C9.23309 0.771346 9.17608 0.704762 9.10127 0.657493C9.02631 0.610283 8.93311 0.572818 8.82221 0.544983C8.52783 0.478369 8.15298 0.442334 7.69748 0.436732C6.66455 0.425645 6.00084 0.492345 5.70649 0.636747C5.58987 0.697759 5.48433 0.78112 5.38997 0.88657C5.28998 1.0088 5.27603 1.0755 5.34821 1.08647C5.68149 1.13639 5.91742 1.25582 6.05628 1.44463L6.10632 1.54468C6.14524 1.61687 6.18411 1.74467 6.223 1.9279C6.26184 2.11114 6.2869 2.31384 6.29793 2.53589C6.32565 2.94137 6.32565 3.28848 6.29793 3.57722C6.27012 3.86608 6.24386 4.09096 6.2188 4.25202C6.19374 4.41308 6.15627 4.5436 6.10632 4.64353C6.05628 4.7435 6.02299 4.80459 6.0063 4.82677C5.98964 4.84895 5.97575 4.86292 5.96472 4.86841C5.89253 4.89607 5.81746 4.91016 5.73975 4.91016C5.66194 4.91016 5.56757 4.87124 5.45652 4.79345C5.3455 4.71566 5.23028 4.60881 5.11085 4.47272C4.99143 4.33661 4.85674 4.1464 4.70674 3.90206C4.55685 3.65772 4.40133 3.36895 4.24027 3.03574L4.10701 2.79408C4.02371 2.63862 3.90991 2.41226 3.76551 2.1152C3.62102 1.81802 3.49331 1.53056 3.38229 1.25287C3.33791 1.13625 3.27124 1.04746 3.18239 0.986359L3.14069 0.961295C3.11297 0.939119 3.06848 0.915573 3.00744 0.89048C2.94631 0.865416 2.88253 0.847442 2.81582 0.836383L0.533257 0.852957C0.300008 0.852957 0.141747 0.905798 0.0584144 1.01133L0.0250639 1.06126C0.00840327 1.08907 0 1.13347 0 1.1946C0 1.2557 0.0166606 1.33069 0.0500111 1.41948C0.383224 2.20262 0.745586 2.95789 1.1371 3.68541C1.52861 4.41294 1.86882 4.99898 2.15754 5.44301C2.44631 5.88736 2.74066 6.30674 3.04058 6.70093C3.3405 7.09527 3.53903 7.34799 3.63617 7.45901C3.73342 7.57023 3.8098 7.65339 3.86533 7.70892L4.07363 7.90882C4.20692 8.04213 4.40264 8.20179 4.6609 8.3878C4.91921 8.57393 5.20518 8.75717 5.51896 8.93781C5.8328 9.11816 6.19791 9.26533 6.61448 9.37916C7.031 9.4931 7.4364 9.53882 7.83074 9.51676H8.78877C8.98307 9.49998 9.13027 9.43888 9.23032 9.33343L9.26347 9.29168C9.28576 9.25853 9.30662 9.20703 9.32588 9.13774C9.34537 9.06832 9.35506 8.99185 9.35506 8.90866C9.34937 8.6699 9.36755 8.45471 9.40909 8.26313C9.45061 8.0716 9.49794 7.9272 9.55087 7.82995C9.60377 7.73279 9.66347 7.65079 9.72991 7.58433C9.79649 7.51771 9.84394 7.47736 9.87177 7.46347C9.89943 7.4495 9.92152 7.44001 9.93818 7.43432C10.0715 7.38991 10.2283 7.43292 10.409 7.56355C10.5895 7.69407 10.7588 7.85522 10.9172 8.04674C11.0755 8.23844 11.2657 8.45351 11.4878 8.69228C11.71 8.93113 11.9044 9.10868 12.0709 9.22547L12.2375 9.32544C12.3487 9.39214 12.4931 9.45324 12.6708 9.50876C12.8483 9.56426 13.0037 9.57815 13.1372 9.5504L15.2698 9.51714C15.4807 9.51714 15.6448 9.48221 15.7612 9.41291C15.8779 9.3435 15.9472 9.26702 15.9695 9.18384C15.9918 9.10056 15.993 9.00608 15.9738 8.90046C15.954 8.7951 15.9346 8.72142 15.9152 8.67979Z" fill="#F78C2E"/>
</svg>
