<svg width="15" height="10" viewBox="0 0 15 10" fill="none" xmlns="http://www.w3.org/2000/svg">
<path d="M14.691 1.56471C14.5181 0.952941 14.0115 0.470588 13.369 0.305882C12.1952 0 7.49997 0 7.49997 0C7.49997 0 2.80477 0 1.63097 0.294118C1.00082 0.458824 0.481876 0.952941 0.308895 1.56471C0 2.68235 0 5 0 5C0 5 0 7.32941 0.308895 8.43529C0.481876 9.04706 0.988464 9.52941 1.63097 9.69412C2.81712 10 7.49997 10 7.49997 10C7.49997 10 12.1952 10 13.369 9.70588C14.0115 9.54118 14.5181 9.05882 14.691 8.44706C14.9999 7.32941 14.9999 5.01176 14.9999 5.01176C14.9999 5.01176 15.0123 2.68235 14.691 1.56471Z" fill="#F78C2E"/>
<path d="M9.90931 5.00006L6.00488 2.85889V7.14124L9.90931 5.00006Z" fill="white"/>
</svg>
